<svg width="109" height="117" viewBox="0 0 109 117" fill="none" xmlns="http://www.w3.org/2000/svg">
<path d="M93.0054 42.12V41.535H15.9946V42.12H93.0054Z" fill="#F2F2F2"/>
<path fill-rule="evenodd" clip-rule="evenodd" d="M55.9521 26.0016C56.0986 25.6932 56.1719 25.3342 56.1719 24.9248V24.7391C56.1719 24.3316 56.0967 23.9726 55.9463 23.6622C55.7978 23.3499 55.5866 23.1109 55.3128 22.9453C55.0409 22.7777 54.7295 22.6939 54.3785 22.6939C54.0275 22.6939 53.7152 22.7777 53.4413 22.9453C53.1694 23.1109 52.9583 23.3499 52.8079 23.6622C52.6594 23.9726 52.5851 24.3325 52.5851 24.742V24.9476C52.5871 25.3475 52.6632 25.7017 52.8137 26.0102C52.9641 26.3168 53.1762 26.5529 53.45 26.7186C53.7238 26.8843 54.0353 26.9671 54.3843 26.9671C54.7372 26.9671 55.0496 26.8833 55.3215 26.7158C55.5953 26.5482 55.8055 26.3101 55.9521 26.0016ZM55.0554 23.7422C55.2135 23.9688 55.2926 24.3002 55.2926 24.7362V24.9391C55.2906 25.3713 55.2116 25.7008 55.0554 25.9274C54.8992 26.1521 54.6755 26.2644 54.3843 26.2644C54.0873 26.2644 53.8598 26.1473 53.7017 25.9131C53.5435 25.6789 53.4645 25.3494 53.4645 24.9248V24.722C53.4664 24.2897 53.5464 23.9621 53.7046 23.7393C53.8627 23.5146 54.0873 23.4023 54.3785 23.4023C54.6716 23.4023 54.8972 23.5156 55.0554 23.7422Z" fill="#F2F2F2"/>
<path d="M50.8873 23.4451H52.1774V22.751H48.7469V23.4451H50.0196V26.91H50.8873V23.4451Z" fill="#F2F2F2"/>
<path fill-rule="evenodd" clip-rule="evenodd" d="M57.7887 25.4446V26.91H56.9209V22.751H58.5639C58.8801 22.751 59.1578 22.8081 59.3969 22.9224C59.638 23.0367 59.8231 23.1995 59.9523 23.4109C60.0815 23.6203 60.1461 23.8593 60.1461 24.1278C60.1461 24.5353 60.0044 24.8572 59.7209 25.0933C59.4394 25.3275 59.0489 25.4446 58.5494 25.4446H57.7887ZM57.7887 24.7505H58.5639C58.7934 24.7505 58.9679 24.6972 59.0874 24.5906C59.2089 24.4839 59.2697 24.3316 59.2697 24.1335C59.2697 23.9298 59.2089 23.7651 59.0874 23.6394C58.966 23.5137 58.7982 23.4489 58.5841 23.4451H57.7887V24.7505Z" fill="#F2F2F2"/>
<path d="M33.0193 30.356L32.4524 33.3153L31.7611 30.356H31.0264L30.3322 33.3096L29.7623 30.356H28.8975L29.8318 34.515H30.7053L31.3908 31.7328L32.0764 34.515H32.9499L33.8842 30.356H33.0193Z" fill="#F2F2F2"/>
<path d="M37.008 32.7126H35.3419V33.8266H37.2973V34.515H34.4742V30.356H37.2915V31.0501H35.3419V32.0413H37.008V32.7126Z" fill="#F2F2F2"/>
<path fill-rule="evenodd" clip-rule="evenodd" d="M37.9248 30.356V34.515H39.562C40.0403 34.5112 40.4086 34.4065 40.667 34.2008C40.9254 33.9951 41.0546 33.6923 41.0546 33.2924C41.0546 33.0582 40.9919 32.8602 40.8666 32.6983C40.7431 32.5364 40.5734 32.4288 40.3575 32.3755C40.5464 32.3032 40.694 32.1899 40.8 32.0356C40.9061 31.8795 40.9591 31.6995 40.9591 31.4957C40.9591 31.1225 40.827 30.8397 40.5628 30.6474C40.2986 30.4531 39.911 30.356 39.4 30.356H37.9248ZM38.7926 33.8266V32.704H39.5881C39.9872 32.7097 40.1868 32.903 40.1868 33.2839C40.1868 33.4534 40.129 33.5867 40.0133 33.6838C39.8995 33.779 39.7404 33.8266 39.536 33.8266H38.7926ZM39.4347 32.0984H38.7926V31.0501H39.4C39.6392 31.0501 39.8137 31.092 39.9236 31.1758C40.0354 31.2577 40.0914 31.3929 40.0914 31.5814C40.0914 31.9185 39.8725 32.0908 39.4347 32.0984Z" fill="#F2F2F2"/>
<path fill-rule="evenodd" clip-rule="evenodd" d="M43.4204 34.515V30.356H44.7163C45.0865 30.356 45.4172 30.4389 45.7084 30.6045C46.0015 30.7683 46.23 31.0025 46.394 31.3072C46.5579 31.61 46.6398 31.9547 46.6398 32.3412V32.5326C46.6398 32.9192 46.5588 33.2629 46.3969 33.5638C46.2368 33.8647 46.0102 34.098 45.7171 34.2636C45.424 34.4293 45.0933 34.5131 44.725 34.515H43.4204ZM44.2882 31.0501V33.8266H44.7076C45.047 33.8266 45.3064 33.7171 45.4857 33.4981C45.665 33.2791 45.7566 32.9659 45.7605 32.5583V32.3384C45.7605 31.9156 45.6718 31.5957 45.4944 31.3786C45.317 31.1596 45.0576 31.0501 44.7163 31.0501H44.2882Z" fill="#F2F2F2"/>
<path d="M48.2595 32.7126H49.9256V32.0413H48.2595V31.0501H50.2091V30.356H47.3918V34.515H50.2149V33.8266H48.2595V32.7126Z" fill="#F2F2F2"/>
<path d="M52.3986 33.4838L53.3532 30.356H54.3193L52.8528 34.515H51.9474L50.4867 30.356H51.4499L52.3986 33.4838Z" fill="#F2F2F2"/>
<path d="M55.7047 32.7126H57.3708V32.0413H55.7047V31.0501H57.6543V30.356H54.8369V34.515H57.66V33.8266H55.7047V32.7126Z" fill="#F2F2F2"/>
<path d="M59.1554 33.8266H60.9979V34.515H58.2876V30.356H59.1554V33.8266Z" fill="#F2F2F2"/>
<path fill-rule="evenodd" clip-rule="evenodd" d="M64.6713 33.6066C64.8179 33.2982 64.8911 32.9392 64.8911 32.5298V32.3441C64.8911 31.9366 64.8159 31.5776 64.6655 31.2672C64.517 30.9549 64.3059 30.7159 64.0321 30.5503C63.7602 30.3827 63.4487 30.2989 63.0978 30.2989C62.7468 30.2989 62.4344 30.3827 62.1606 30.5503C61.8887 30.7159 61.6775 30.9549 61.5271 31.2672C61.3786 31.5776 61.3044 31.9375 61.3044 32.347V32.5526C61.3063 32.9525 61.3825 33.3067 61.5329 33.6152C61.6833 33.9218 61.8954 34.1579 62.1693 34.3236C62.4431 34.4893 62.7545 34.5721 63.1036 34.5721C63.4564 34.5721 63.7688 34.4883 64.0407 34.3208C64.3146 34.1532 64.5248 33.9151 64.6713 33.6066ZM63.7746 31.3472C63.9328 31.5738 64.0118 31.9052 64.0118 32.3412V32.5441C64.0099 32.9763 63.9308 33.3058 63.7746 33.5324C63.6184 33.7571 63.3947 33.8694 63.1036 33.8694C62.8066 33.8694 62.579 33.7523 62.4209 33.5181C62.2628 33.2839 62.1837 32.9544 62.1837 32.5298V32.327C62.1857 31.8947 62.2657 31.5671 62.4238 31.3443C62.5819 31.1196 62.8066 31.0073 63.0978 31.0073C63.3909 31.0073 63.6165 31.1206 63.7746 31.3472Z" fill="#F2F2F2"/>
<path fill-rule="evenodd" clip-rule="evenodd" d="M66.508 33.0496V34.515H65.6402V30.356H67.2832C67.5994 30.356 67.8771 30.4131 68.1162 30.5274C68.3572 30.6417 68.5424 30.8045 68.6716 31.0159C68.8008 31.2253 68.8654 31.4643 68.8654 31.7328C68.8654 32.1403 68.7236 32.4622 68.4402 32.6983C68.1586 32.9325 67.7681 33.0496 67.2687 33.0496H66.508ZM66.508 32.3555H67.2832C67.5126 32.3555 67.6871 32.3022 67.8067 32.1956C67.9282 32.0889 67.9889 31.9366 67.9889 31.7385C67.9889 31.5348 67.9282 31.3701 67.8067 31.2444C67.6852 31.1187 67.5174 31.0539 67.3034 31.0501H66.508V32.3555Z" fill="#F2F2F2"/>
<path d="M70.4504 32.7126H72.1165V32.0413H70.4504V31.0501H72.3999V30.356H69.5826V34.515H72.4057V33.8266H70.4504V32.7126Z" fill="#F2F2F2"/>
<path fill-rule="evenodd" clip-rule="evenodd" d="M74.5924 32.9925H73.9011V34.515H73.0333V30.356H74.5982C75.0957 30.356 75.4794 30.4655 75.7494 30.6845C76.0194 30.9035 76.1543 31.2129 76.1543 31.6129C76.1543 31.8966 76.0917 32.1337 75.9663 32.3241C75.8429 32.5126 75.6549 32.6631 75.4023 32.7754L76.3134 34.475V34.515H75.382L74.5924 32.9925ZM73.9011 32.2984H74.601C74.8189 32.2984 74.9877 32.2441 75.1072 32.1356C75.2268 32.0251 75.2866 31.8737 75.2866 31.6814C75.2866 31.4853 75.2297 31.331 75.1159 31.2187C75.0041 31.1063 74.8315 31.0501 74.5982 31.0501H73.9011V32.2984Z" fill="#F2F2F2"/>
<path d="M78.9455 33.0525C79.0612 33.1382 79.1191 33.262 79.1191 33.4238C79.1191 33.5724 79.0612 33.6885 78.9455 33.7723C78.8298 33.8542 78.6688 33.8951 78.4625 33.8951C77.9071 33.8951 77.6294 33.6657 77.6294 33.2067H76.7588C76.7588 33.4753 76.8282 33.7114 76.967 33.9151C77.1078 34.1189 77.3112 34.2798 77.5773 34.3979C77.8435 34.514 78.1385 34.5721 78.4625 34.5721C78.9291 34.5721 79.3003 34.4702 79.5761 34.2665C79.8518 34.0608 79.9897 33.778 79.9897 33.4181C79.9897 33.0944 79.8769 32.824 79.6513 32.6069C79.4257 32.3898 79.066 32.2079 78.5724 32.0613C78.3043 31.9813 78.1009 31.8956 77.9621 31.8042C77.8251 31.7128 77.7567 31.5995 77.7567 31.4643C77.7567 31.3196 77.8155 31.2034 77.9331 31.1158C78.0508 31.0263 78.2156 30.9816 78.4277 30.9816C78.6476 30.9816 78.8182 31.0349 78.9397 31.1415C79.0612 31.2463 79.122 31.3939 79.122 31.5843H79.9897C79.9897 31.3348 79.9242 31.112 79.793 30.9159C79.6638 30.7197 79.4816 30.5683 79.2463 30.4617C79.0111 30.3532 78.743 30.2989 78.4422 30.2989C78.1433 30.2989 77.8734 30.3484 77.6323 30.4474C77.3932 30.5464 77.209 30.6845 77.0798 30.8616C76.9526 31.0368 76.8889 31.2368 76.8889 31.4615C76.8889 31.8937 77.128 32.2375 77.6063 32.4926C77.7817 32.5859 78.0199 32.6812 78.3207 32.7783C78.6216 32.8735 78.8298 32.9649 78.9455 33.0525Z" fill="#F2F2F2"/>
<path d="M93.0054 74.88V75.465H15.9946V74.88H93.0054Z" fill="#F2F2F2"/>
<path d="M50.5018 88.0425H47.4707V87.4486L48.9012 85.943C49.0976 85.7311 49.2423 85.5461 49.3355 85.3881C49.4307 85.2302 49.4782 85.0802 49.4782 84.9383C49.4782 84.7443 49.4286 84.5923 49.3294 84.4824C49.2302 84.3704 49.0885 84.3144 48.9042 84.3144C48.7058 84.3144 48.5489 84.3824 48.4334 84.5184C48.3201 84.6523 48.2634 84.8293 48.2634 85.0492H47.3826C47.3826 84.7833 47.4464 84.5404 47.5739 84.3204C47.7035 84.1005 47.8857 83.9285 48.1206 83.8045C48.3555 83.6786 48.6218 83.6156 48.9194 83.6156C49.375 83.6156 49.7283 83.7235 49.9794 83.9395C50.2325 84.1554 50.359 84.4604 50.359 84.8543C50.359 85.0702 50.3023 85.2902 50.1889 85.5141C50.0755 85.7381 49.8812 85.999 49.6058 86.2969L48.6005 87.3437H50.5018V88.0425Z" fill="#F2F2F2"/>
<path fill-rule="evenodd" clip-rule="evenodd" d="M54.1432 86.2369C54.1432 86.8408 54.0166 87.3027 53.7635 87.6226C53.5105 87.9425 53.1399 88.1025 52.6519 88.1025C52.17 88.1025 51.8015 87.9455 51.5464 87.6316C51.2913 87.3177 51.1607 86.8678 51.1546 86.2819V85.4781C51.1546 84.8683 51.2822 84.4054 51.5373 84.0895C51.7945 83.7735 52.164 83.6156 52.6459 83.6156C53.1278 83.6156 53.4963 83.7725 53.7514 84.0865C54.0065 84.3984 54.1371 84.8473 54.1432 85.4331V86.2369ZM53.2655 85.3552C53.2655 84.9932 53.2148 84.7303 53.1136 84.5663C53.0144 84.4004 52.8585 84.3174 52.6459 84.3174C52.4393 84.3174 52.2865 84.3964 52.1873 84.5544C52.0901 84.7103 52.0384 84.9553 52.0324 85.2892V86.3509C52.0324 86.7068 52.081 86.9718 52.1782 87.1457C52.2774 87.3177 52.4353 87.4037 52.6519 87.4037C52.8666 87.4037 53.0215 87.3207 53.1166 87.1547C53.2118 86.9888 53.2614 86.7348 53.2655 86.3929V85.3552Z" fill="#F2F2F2"/>
<path d="M54.8629 88.0425H57.894V87.3437H55.9927L56.998 86.2969C57.2734 85.999 57.4678 85.7381 57.5811 85.5141C57.6945 85.2902 57.7512 85.0702 57.7512 84.8543C57.7512 84.4604 57.6247 84.1554 57.3716 83.9395C57.1205 83.7235 56.7672 83.6156 56.3116 83.6156C56.014 83.6156 55.7477 83.6786 55.5128 83.8045C55.278 83.9285 55.0957 84.1005 54.9661 84.3204C54.8386 84.5404 54.7748 84.7833 54.7748 85.0492H55.6556C55.6556 84.8293 55.7123 84.6523 55.8257 84.5184C55.9411 84.3824 56.098 84.3144 56.2964 84.3144C56.4807 84.3144 56.6224 84.3704 56.7216 84.4824C56.8208 84.5923 56.8704 84.7443 56.8704 84.9383C56.8704 85.0802 56.8229 85.2302 56.7277 85.3881C56.6346 85.5461 56.4898 85.7311 56.2934 85.943L54.8629 87.4486V88.0425Z" fill="#F2F2F2"/>
<path fill-rule="evenodd" clip-rule="evenodd" d="M61.5354 86.2369C61.5354 86.8408 61.4089 87.3027 61.1558 87.6226C60.9027 87.9425 60.5321 88.1025 60.0442 88.1025C59.5623 88.1025 59.1937 87.9455 58.9386 87.6316C58.6835 87.3177 58.5529 86.8678 58.5468 86.2819V85.4781C58.5468 84.8683 58.6744 84.4054 58.9295 84.0895C59.1867 83.7735 59.5562 83.6156 60.0381 83.6156C60.52 83.6156 60.8885 83.7725 61.1436 84.0865C61.3987 84.3984 61.5293 84.8473 61.5354 85.4331V86.2369ZM60.6577 85.3552C60.6577 84.9932 60.607 84.7303 60.5058 84.5663C60.4066 84.4004 60.2507 84.3174 60.0381 84.3174C59.8316 84.3174 59.6787 84.3964 59.5795 84.5544C59.4823 84.7103 59.4306 84.9553 59.4246 85.2892V86.3509C59.4246 86.7068 59.4732 86.9718 59.5704 87.1457C59.6696 87.3177 59.8275 87.4037 60.0442 87.4037C60.2588 87.4037 60.4137 87.3207 60.5088 87.1547C60.604 86.9888 60.6536 86.7348 60.6577 86.3929V85.3552Z" fill="#F2F2F2"/>
<path fill-rule="evenodd" clip-rule="evenodd" d="M104.853 31.8417L54.5 4.9725L4.14674 31.8417V85.5801L54.5 112.449L104.853 85.5801V31.8417ZM54.5 9.6271L8.29348 34.2835V46.215H100.707L100.707 34.2835L54.5 9.6271ZM100.707 70.785H8.29348V83.1382L54.5 107.795L100.707 83.1382L100.707 70.785ZM43.5402 50.31H41.0468V65.52H43.5402V50.31ZM49.611 63.2706C50.2615 63.2706 52.2128 63.0564 52.2128 60.6999V55.2372H54.7062V65.52H52.2128V64.6631C51.5623 65.3058 50.4783 65.52 49.611 65.52C48.4185 65.52 47.4429 65.1986 46.684 64.4489C45.8167 63.6991 45.3831 62.4137 45.3831 61.0213V55.2372H47.8765V61.1284C47.8765 61.8782 48.0933 63.2706 49.611 63.2706ZM57.0911 51.4882H59.5845V55.2372H61.3802V57.5937H59.5845V65.52H57.0911V57.5937H55.4039V55.2372H57.0911V51.4882ZM67.173 63.1635C67.9319 63.1635 68.6907 62.8422 69.2328 62.4137L69.558 62.0924L71.2925 63.8062L70.8589 64.1275C69.8832 64.9844 68.5823 65.52 67.173 65.52C64.1376 65.52 61.8611 63.2706 61.8611 60.2715C61.8611 57.2723 64.1376 55.023 67.173 55.023C68.5823 55.023 69.8832 55.5585 70.8589 56.4154L71.2925 56.7368L69.558 58.3435L69.2328 58.0221C68.6907 57.4865 67.9319 57.2723 67.173 57.2723C65.4385 57.2723 64.246 58.4506 64.246 60.1644C64.246 61.8782 65.4385 63.1635 67.173 63.1635ZM77.3633 55.023C78.5558 55.023 79.3147 55.3443 80.0735 56.0941C80.8324 56.8439 81.1576 58.1292 81.1576 59.5217V65.4129H78.6642V59.4146C78.6642 59.3907 78.6644 59.3661 78.6645 59.3409L78.665 59.2731C78.6714 58.5027 78.6816 57.2723 77.2549 57.2723C76.6045 57.2723 74.9784 57.4865 74.9784 59.843V65.52H72.485V50.31H74.9784V55.8799C75.6288 55.2372 76.4961 55.023 77.3633 55.023ZM68.7991 60.2715C68.7991 61.218 68.0226 61.9853 67.0646 61.9853C66.1067 61.9853 65.3301 61.218 65.3301 60.2715C65.3301 59.325 66.1067 58.5577 67.0646 58.5577C68.0226 58.5577 68.7991 59.325 68.7991 60.2715ZM34.0003 63.1635C35.4096 63.1635 36.7105 62.628 37.5777 61.7711L37.903 61.4497L39.5291 63.0564L39.2039 63.3778C37.903 64.7702 35.9516 65.52 34.0003 65.52C29.9892 65.52 26.9538 62.3066 26.9538 58.1292C26.9538 53.9518 29.9892 50.7384 34.1087 50.8456C36.06 50.8456 37.903 51.5954 39.3123 52.9878L39.6375 53.3092L38.0114 54.9158L37.6862 54.5945C36.7105 53.6305 35.4096 53.0949 34.1087 53.0949C31.2901 53.0949 29.3388 55.2372 29.3388 58.1292C29.3388 61.0213 31.2901 63.1635 34.0003 63.1635Z" fill="#F2F2F2"/>
<path fill-rule="evenodd" clip-rule="evenodd" d="M109 29.25L54.5 0L0 29.25V87.75L54.5 117L109 87.75V29.25ZM54.5 1.33163L1.18478 29.9458V87.0542L54.5 115.668L107.815 87.0542V29.9458L54.5 1.33163Z" fill="#F2F2F2"/>
</svg>
