<svg width="109" height="117" viewBox="0 0 109 117" fill="none" xmlns="http://www.w3.org/2000/svg">
<path d="M93.0054 41.535V42.12H15.9946V41.535H93.0054Z" fill="#F2F2F2"/>
<path fill-rule="evenodd" clip-rule="evenodd" d="M56.1719 19.9523C56.1719 20.3617 56.0986 20.7207 55.952 21.0292C55.8055 21.3376 55.5953 21.5757 55.3215 21.7433C55.0496 21.9108 54.7372 21.9946 54.3843 21.9946C54.0353 21.9946 53.7238 21.9118 53.45 21.7461C53.1762 21.5804 52.9641 21.3443 52.8136 21.0377C52.6632 20.7292 52.5871 20.375 52.5851 19.9751V19.7695C52.5851 19.36 52.6594 19.0001 52.8079 18.6897C52.9583 18.3774 53.1694 18.1384 53.4413 17.9728C53.7152 17.8052 54.0275 17.7214 54.3785 17.7214C54.7295 17.7214 55.0409 17.8052 55.3128 17.9728C55.5866 18.1384 55.7978 18.3774 55.9463 18.6897C56.0967 19.0001 56.1719 19.3591 56.1719 19.7666V19.9523ZM55.2926 19.7637C55.2926 19.3277 55.2135 18.9963 55.0554 18.7697C54.8972 18.5431 54.6716 18.4298 54.3785 18.4298C54.0873 18.4298 53.8627 18.5421 53.7045 18.7668C53.5464 18.9896 53.4664 19.3172 53.4645 19.7495V19.9523C53.4645 20.3769 53.5435 20.7064 53.7017 20.9406C53.8598 21.1748 54.0873 21.2919 54.3843 21.2919C54.6755 21.2919 54.8992 21.1796 55.0554 20.9549C55.2116 20.7283 55.2906 20.3988 55.2926 19.9666V19.7637Z" fill="#F2F2F2"/>
<path d="M52.1774 18.4726H50.8873V21.9375H50.0196V18.4726H48.7469V17.7785H52.1774V18.4726Z" fill="#F2F2F2"/>
<path fill-rule="evenodd" clip-rule="evenodd" d="M57.7887 21.9375V20.4721H58.5494C59.0489 20.4721 59.4394 20.355 59.7209 20.1208C60.0044 19.8847 60.1461 19.5628 60.1461 19.1553C60.1461 18.8868 60.0815 18.6478 59.9523 18.4384C59.8231 18.227 59.638 18.0642 59.3969 17.9499C59.1578 17.8356 58.8801 17.7785 58.5639 17.7785H56.9209V21.9375H57.7887ZM58.5639 19.778H57.7887V18.4726H58.5841C58.7982 18.4764 58.966 18.5412 59.0874 18.6669C59.2089 18.7926 59.2697 18.9573 59.2697 19.161C59.2697 19.3591 59.2089 19.5114 59.0874 19.6181C58.9679 19.7247 58.7934 19.778 58.5639 19.778Z" fill="#F2F2F2"/>
<path fill-rule="evenodd" clip-rule="evenodd" d="M42.2448 28.6856H40.7233L40.4341 29.5425H39.5113L41.0791 25.3835H41.8832L43.4597 29.5425H42.5369L42.2448 28.6856ZM40.9576 27.9914H42.0105L41.4812 26.4347L40.9576 27.9914Z" fill="#F2F2F2"/>
<path fill-rule="evenodd" clip-rule="evenodd" d="M44.8393 28.02H45.5306L46.3203 29.5425H47.2516V29.5025L46.3405 27.8029C46.5931 27.6906 46.7811 27.5401 46.9045 27.3516C47.0299 27.1612 47.0926 26.9241 47.0926 26.6404C47.0926 26.2404 46.9576 25.931 46.6876 25.712C46.4176 25.493 46.0339 25.3835 45.5364 25.3835H43.9715V29.5425H44.8393V28.02ZM45.5393 27.3259H44.8393V26.0776H45.5364C45.7697 26.0776 45.9423 26.1338 46.0541 26.2462C46.1679 26.3585 46.2248 26.5128 46.2248 26.7089C46.2248 26.9012 46.165 27.0526 46.0455 27.1631C45.9259 27.2716 45.7572 27.3259 45.5393 27.3259Z" fill="#F2F2F2"/>
<path d="M50.899 26.0776H49.609V29.5425H48.7412V26.0776H47.4685V25.3835H50.899V26.0776Z" fill="#F2F2F2"/>
<path d="M51.57 29.5425H52.4377V25.3835H51.57V29.5425Z" fill="#F2F2F2"/>
<path d="M55.8971 27.8429H54.231V29.5425H53.3632V25.3835H56.1054V26.0776H54.231V27.1517H55.8971V27.8429Z" fill="#F2F2F2"/>
<path d="M56.7821 29.5425H57.6498V25.3835H56.7821V29.5425Z" fill="#F2F2F2"/>
<path d="M61.8815 28.1571C61.8487 28.6046 61.681 28.9569 61.3782 29.214C61.0774 29.4711 60.6801 29.5996 60.1865 29.5996C59.6465 29.5996 59.2213 29.4206 58.9109 29.0626C58.6023 28.7027 58.4481 28.2095 58.4481 27.583V27.3288C58.4481 26.9289 58.5194 26.5766 58.6621 26.2719C58.8048 25.9672 59.0083 25.7339 59.2724 25.572C59.5386 25.4083 59.8471 25.3264 60.1981 25.3264C60.684 25.3264 61.0755 25.4549 61.3724 25.712C61.6694 25.9691 61.841 26.33 61.8873 26.7946H61.0195C60.9983 26.5261 60.9222 26.3319 60.791 26.2119C60.6618 26.09 60.4642 26.0291 60.1981 26.0291C59.9088 26.0291 59.6919 26.1319 59.5472 26.3376C59.4045 26.5413 59.3313 26.8584 59.3274 27.2888V27.603C59.3274 28.0524 59.3959 28.3809 59.5328 28.5884C59.6716 28.796 59.8895 28.8998 60.1865 28.8998C60.4545 28.8998 60.6541 28.8398 60.7852 28.7198C60.9183 28.598 60.9945 28.4104 61.0138 28.1571H61.8815Z" fill="#F2F2F2"/>
<path fill-rule="evenodd" clip-rule="evenodd" d="M63.426 28.6856H64.9475L65.2396 29.5425H66.1624L64.5859 25.3835H63.7818L62.214 29.5425H63.1368L63.426 28.6856ZM64.7132 27.9914H63.6603L64.1839 26.4347L64.7132 27.9914Z" fill="#F2F2F2"/>
<path d="M67.542 28.8541H69.3845V29.5425H66.6742V25.3835H67.542V28.8541Z" fill="#F2F2F2"/>
<path d="M34.4105 37.1475H35.2783V32.9885H34.4105V37.1475Z" fill="#F2F2F2"/>
<path d="M39.6285 37.1475H38.7608L37.0715 34.411V37.1475H36.2038V32.9885H37.0715L38.7637 35.7307V32.9885H39.6285V37.1475Z" fill="#F2F2F2"/>
<path d="M42.2982 33.6826H43.5883V32.9885H40.1578V33.6826H41.4305V37.1475H42.2982V33.6826Z" fill="#F2F2F2"/>
<path d="M46.7382 35.3451H45.0721V36.4591H47.0274V37.1475H44.2043V32.9885H47.0216V33.6826H45.0721V34.6738H46.7382V35.3451Z" fill="#F2F2F2"/>
<path d="M50.3653 36.4591H48.5227V32.9885H47.655V37.1475H50.3653V36.4591Z" fill="#F2F2F2"/>
<path d="M51.8519 36.4591H53.6945V37.1475H50.9842V32.9885H51.8519V36.4591Z" fill="#F2F2F2"/>
<path d="M54.3683 37.1475H55.2361V32.9885H54.3683V37.1475Z" fill="#F2F2F2"/>
<path d="M59.4938 36.6219C59.3376 36.8066 59.1168 36.9504 58.8314 37.0532C58.546 37.1542 58.2297 37.2046 57.8826 37.2046C57.5182 37.2046 57.1981 37.1265 56.9223 36.9704C56.6485 36.8123 56.4364 36.5838 56.286 36.2849C56.1375 35.9859 56.0613 35.6345 56.0575 35.2308V34.948C56.0575 34.5329 56.1278 34.1739 56.2686 33.8712C56.4113 33.5665 56.6157 33.3341 56.8818 33.1742C57.1499 33.0123 57.4632 32.9314 57.8219 32.9314C58.3214 32.9314 58.7118 33.0494 58.9934 33.2856C59.2749 33.5198 59.4417 33.8616 59.4938 34.3111H58.6492C58.6106 34.073 58.5248 33.8988 58.3917 33.7883C58.2606 33.6779 58.0793 33.6226 57.8479 33.6226C57.5529 33.6226 57.3282 33.7321 57.174 33.9511C57.0197 34.1701 56.9416 34.4958 56.9397 34.928V35.1937C56.9397 35.6298 57.0236 35.9592 57.1913 36.182C57.3591 36.4048 57.605 36.5162 57.9289 36.5162C58.2548 36.5162 58.4872 36.4477 58.626 36.3106V35.5936H57.8364V34.9623H59.4938V36.6219Z" fill="#F2F2F2"/>
<path d="M61.1858 35.3451H62.8519V34.6738H61.1858V33.6826H63.1354V32.9885H60.318V37.1475H63.1412V36.4591H61.1858V35.3451Z" fill="#F2F2F2"/>
<path d="M67.1935 37.1475H66.3257L64.6365 34.411V37.1475H63.7687V32.9885H64.6365L66.3286 35.7307V32.9885H67.1935V37.1475Z" fill="#F2F2F2"/>
<path d="M70.8727 36.819C71.1754 36.5619 71.3432 36.2096 71.376 35.7621H70.5082C70.4889 36.0154 70.4128 36.203 70.2797 36.3248C70.1486 36.4448 69.949 36.5048 69.681 36.5048C69.384 36.5048 69.1661 36.401 69.0272 36.1934C68.8903 35.9859 68.8219 35.6574 68.8219 35.208V34.8938C68.8257 34.4634 68.899 34.1463 69.0417 33.9426C69.1863 33.7369 69.4033 33.6341 69.6925 33.6341C69.9586 33.6341 70.1563 33.695 70.2855 33.8169C70.4166 33.9369 70.4928 34.1311 70.514 34.3996H71.3818C71.3355 33.9349 71.1639 33.5741 70.8669 33.317C70.5699 33.0599 70.1785 32.9314 69.6925 32.9314C69.3416 32.9314 69.033 33.0133 68.7669 33.177C68.5027 33.3389 68.2993 33.5722 68.1566 33.8769C68.0139 34.1816 67.9425 34.5339 67.9425 34.9338V35.188C67.9425 35.8145 68.0968 36.3077 68.4053 36.6676C68.7158 37.0256 69.141 37.2046 69.681 37.2046C70.1746 37.2046 70.5718 37.0761 70.8727 36.819Z" fill="#F2F2F2"/>
<path d="M74.5982 35.3451H72.932V36.4591H74.8874V37.1475H72.0643V32.9885H74.8816V33.6826H72.932V34.6738H74.5982V35.3451Z" fill="#F2F2F2"/>
<path d="M93.0054 75.465V74.88H15.9946V75.465H93.0054Z" fill="#F2F2F2"/>
<path d="M41.0386 82.8546C41.0058 83.3021 40.8381 83.6544 40.5353 83.9115C40.2345 84.1686 39.8372 84.2971 39.3436 84.2971C38.8036 84.2971 38.3784 84.1181 38.068 83.7601C37.7594 83.4002 37.6052 82.907 37.6052 82.2805V82.0263C37.6052 81.6264 37.6765 81.2741 37.8192 80.9694C37.9619 80.6647 38.1653 80.4314 38.4295 80.2695C38.6956 80.1058 39.0042 80.0239 39.3551 80.0239C39.8411 80.0239 40.2325 80.1524 40.5295 80.4095C40.8265 80.6666 40.9981 81.0275 41.0444 81.4921H40.1766C40.1554 81.2236 40.0792 81.0294 39.9481 80.9094C39.8189 80.7875 39.6213 80.7266 39.3551 80.7266C39.0659 80.7266 38.8489 80.8294 38.7043 81.0351C38.5616 81.2388 38.4883 81.5559 38.4845 81.9863V82.3005C38.4845 82.7499 38.5529 83.0784 38.6899 83.2859C38.8287 83.4935 39.0466 83.5973 39.3436 83.5973C39.6116 83.5973 39.8112 83.5373 39.9423 83.4173C40.0754 83.2955 40.1516 83.1079 40.1708 82.8546H41.0386Z" fill="#F2F2F2"/>
<path fill-rule="evenodd" clip-rule="evenodd" d="M45.1864 82.2548C45.1864 82.6642 45.1131 83.0232 44.9665 83.3316C44.82 83.6401 44.6098 83.8782 44.336 84.0458C44.0641 84.2133 43.7517 84.2971 43.3988 84.2971C43.0498 84.2971 42.7383 84.2143 42.4645 84.0486C42.1907 83.8829 41.9786 83.6468 41.8281 83.3402C41.6777 83.0317 41.6016 82.6775 41.5996 82.2776V82.072C41.5996 81.6625 41.6739 81.3026 41.8224 80.9922C41.9728 80.6799 42.1839 80.4409 42.4558 80.2753C42.7296 80.1077 43.042 80.0239 43.393 80.0239C43.744 80.0239 44.0554 80.1077 44.3273 80.2753C44.6011 80.4409 44.8123 80.6799 44.9608 80.9922C45.1112 81.3026 45.1864 81.6616 45.1864 82.0691V82.2548ZM44.307 82.0662C44.307 81.6302 44.228 81.2988 44.0699 81.0722C43.9117 80.8456 43.6861 80.7323 43.393 80.7323C43.1018 80.7323 42.8772 80.8446 42.719 81.0693C42.5609 81.2921 42.4809 81.6197 42.479 82.052V82.2548C42.479 82.6794 42.558 83.0089 42.7162 83.2431C42.8743 83.4773 43.1018 83.5944 43.3988 83.5944C43.69 83.5944 43.9137 83.4821 44.0699 83.2574C44.2261 83.0308 44.3051 82.7013 44.307 82.2691V82.0662Z" fill="#F2F2F2"/>
<path d="M48.1511 83.0974L47.0693 80.081H45.9354V84.24H46.8032V83.1031L46.7164 81.1436L47.8503 84.24H48.4461L49.5829 81.1408L49.4961 83.1031V84.24H50.3668V80.081H49.2271L48.1511 83.0974Z" fill="#F2F2F2"/>
<path fill-rule="evenodd" clip-rule="evenodd" d="M52.1109 82.7746V84.24H51.2431V80.081H52.8861C53.2023 80.081 53.48 80.1381 53.7191 80.2524C53.9602 80.3667 54.1453 80.5295 54.2745 80.7409C54.4037 80.9503 54.4683 81.1893 54.4683 81.4578C54.4683 81.8653 54.3266 82.1872 54.0431 82.4233C53.7616 82.6575 53.3711 82.7746 52.8716 82.7746H52.1109ZM52.1109 82.0805H52.8861C53.1156 82.0805 53.2901 82.0272 53.4096 81.9206C53.5311 81.8139 53.5919 81.6616 53.5919 81.4635C53.5919 81.2598 53.5311 81.0951 53.4096 80.9694C53.2881 80.8437 53.1204 80.7789 52.9063 80.7751H52.1109V82.0805Z" fill="#F2F2F2"/>
<path fill-rule="evenodd" clip-rule="evenodd" d="M55.5268 83.3831H57.0483L57.3405 84.24H58.2632L56.6868 80.081H55.8826L54.3149 84.24H55.2376L55.5268 83.3831ZM56.814 82.6889H55.7611L56.2847 81.1322L56.814 82.6889Z" fill="#F2F2F2"/>
<path d="M62.1998 84.24H61.332L59.6428 81.5035V84.24H58.775V80.081H59.6428L61.3349 82.8232V80.081H62.1998V84.24Z" fill="#F2F2F2"/>
<path d="M63.1311 84.24H63.9988V80.081H63.1311V84.24Z" fill="#F2F2F2"/>
<path d="M67.4582 82.4376H65.7921V83.5516H67.7475V84.24H64.9243V80.081H67.7417V80.7751H65.7921V81.7663H67.4582V82.4376Z" fill="#F2F2F2"/>
<path d="M70.3853 82.7775C70.501 82.8632 70.5589 82.987 70.5589 83.1488C70.5589 83.2974 70.501 83.4135 70.3853 83.4973C70.2696 83.5792 70.1086 83.6201 69.9023 83.6201C69.3469 83.6201 69.0692 83.3907 69.0692 82.9317H68.1986C68.1986 83.2003 68.268 83.4364 68.4068 83.6401C68.5476 83.8439 68.7511 84.0048 69.0172 84.1229C69.2833 84.239 69.5783 84.2971 69.9023 84.2971C70.3689 84.2971 70.7402 84.1953 71.0159 83.9915C71.2917 83.7858 71.4295 83.503 71.4295 83.1431C71.4295 82.8194 71.3167 82.549 71.0911 82.3319C70.8655 82.1148 70.5059 81.9329 70.0122 81.7863C69.7442 81.7063 69.5407 81.6206 69.4019 81.5292C69.265 81.4378 69.1965 81.3245 69.1965 81.1893C69.1965 81.0446 69.2553 80.9284 69.3729 80.8408C69.4906 80.7513 69.6554 80.7066 69.8676 80.7066C70.0874 80.7066 70.2581 80.7599 70.3796 80.8665C70.501 80.9713 70.5618 81.1189 70.5618 81.3093H71.4295C71.4295 81.0598 71.364 80.837 71.2328 80.6409C71.1036 80.4447 70.9214 80.2933 70.6862 80.1867C70.4509 80.0782 70.1829 80.0239 69.882 80.0239C69.5831 80.0239 69.3132 80.0734 69.0721 80.1724C68.833 80.2714 68.6488 80.4095 68.5196 80.5866C68.3924 80.7618 68.3287 80.9618 68.3287 81.1865C68.3287 81.6187 68.5679 81.9625 69.0461 82.2176C69.2216 82.3109 69.4597 82.4062 69.7605 82.5033C70.0614 82.5985 70.2696 82.6899 70.3853 82.7775Z" fill="#F2F2F2"/>
<path d="M50.5018 92.7225H47.4707V92.1286L48.9012 90.623C49.0976 90.4111 49.2423 90.2261 49.3355 90.0681C49.4306 89.9102 49.4782 89.7602 49.4782 89.6183C49.4782 89.4243 49.4286 89.2723 49.3294 89.1624C49.2302 89.0504 49.0885 88.9944 48.9042 88.9944C48.7058 88.9944 48.5489 89.0624 48.4334 89.1984C48.3201 89.3323 48.2634 89.5093 48.2634 89.7292H47.3826C47.3826 89.4633 47.4464 89.2204 47.5739 89.0004C47.7035 88.7805 47.8857 88.6085 48.1206 88.4845C48.3555 88.3586 48.6217 88.2956 48.9194 88.2956C49.375 88.2956 49.7283 88.4035 49.9794 88.6195C50.2325 88.8354 50.359 89.1404 50.359 89.5343C50.359 89.7502 50.3023 89.9702 50.1889 90.1941C50.0755 90.4181 49.8812 90.679 49.6058 90.9769L48.6005 92.0237H50.5018V92.7225Z" fill="#F2F2F2"/>
<path fill-rule="evenodd" clip-rule="evenodd" d="M54.1432 90.9169C54.1432 91.5208 54.0166 91.9827 53.7635 92.3026C53.5104 92.6225 53.1399 92.7825 52.6519 92.7825C52.17 92.7825 51.8015 92.6255 51.5464 92.3116C51.2913 91.9977 51.1607 91.5478 51.1546 90.9619V90.1581C51.1546 89.5483 51.2822 89.0854 51.5373 88.7695C51.7944 88.4535 52.164 88.2956 52.6459 88.2956C53.1278 88.2956 53.4963 88.4525 53.7514 88.7665C54.0065 89.0784 54.1371 89.5273 54.1432 90.1131V90.9169ZM53.2654 90.0352C53.2654 89.6732 53.2148 89.4103 53.1136 89.2463C53.0144 89.0804 52.8585 88.9974 52.6459 88.9974C52.4393 88.9974 52.2865 89.0764 52.1873 89.2344C52.0901 89.3903 52.0384 89.6353 52.0324 89.9692V91.0309C52.0324 91.3868 52.081 91.6518 52.1781 91.8257C52.2774 91.9977 52.4353 92.0837 52.6519 92.0837C52.8666 92.0837 53.0215 92.0007 53.1166 91.8347C53.2118 91.6688 53.2614 91.4148 53.2654 91.0729V90.0352Z" fill="#F2F2F2"/>
<path d="M54.8629 92.7225H57.894V92.0237H55.9927L56.998 90.9769C57.2734 90.679 57.4677 90.4181 57.5811 90.1941C57.6945 89.9702 57.7512 89.7502 57.7512 89.5343C57.7512 89.1404 57.6247 88.8354 57.3716 88.6195C57.1205 88.4035 56.7672 88.2956 56.3116 88.2956C56.014 88.2956 55.7477 88.3586 55.5128 88.4845C55.278 88.6085 55.0957 88.7805 54.9661 89.0004C54.8386 89.2204 54.7748 89.4633 54.7748 89.7292H55.6556C55.6556 89.5093 55.7123 89.3323 55.8257 89.1984C55.9411 89.0624 56.098 88.9944 56.2964 88.9944C56.4807 88.9944 56.6224 89.0504 56.7216 89.1624C56.8208 89.2723 56.8704 89.4243 56.8704 89.6183C56.8704 89.7602 56.8229 89.9102 56.7277 90.0681C56.6346 90.2261 56.4898 90.4111 56.2934 90.623L54.8629 92.1286V92.7225Z" fill="#F2F2F2"/>
<path fill-rule="evenodd" clip-rule="evenodd" d="M61.5354 90.9169C61.5354 91.5208 61.4088 91.9827 61.1558 92.3026C60.9027 92.6225 60.5321 92.7825 60.0442 92.7825C59.5623 92.7825 59.1937 92.6255 58.9386 92.3116C58.6835 91.9977 58.5529 91.5478 58.5468 90.9619V90.1581C58.5468 89.5483 58.6744 89.0854 58.9295 88.7695C59.1867 88.4535 59.5562 88.2956 60.0381 88.2956C60.52 88.2956 60.8885 88.4525 61.1436 88.7665C61.3987 89.0784 61.5293 89.5273 61.5354 90.1131V90.9169ZM60.6577 90.0352C60.6577 89.6732 60.607 89.4103 60.5058 89.2463C60.4066 89.0804 60.2507 88.9974 60.0381 88.9974C59.8315 88.9974 59.6787 89.0764 59.5795 89.2344C59.4823 89.3903 59.4306 89.6353 59.4246 89.9692V91.0309C59.4246 91.3868 59.4732 91.6518 59.5704 91.8257C59.6696 91.9977 59.8275 92.0837 60.0442 92.0837C60.2588 92.0837 60.4137 92.0007 60.5088 91.8347C60.604 91.6688 60.6536 91.4148 60.6577 91.0729V90.0352Z" fill="#F2F2F2"/>
<path fill-rule="evenodd" clip-rule="evenodd" d="M54.5 4.9725L104.853 31.8417V85.5801L54.5 112.449L4.14674 85.5801V31.8417L54.5 4.9725ZM8.29348 34.2835L54.5 9.6271L100.707 34.2835L100.707 46.215H8.29348V34.2835ZM8.29348 70.785V83.1382L54.5 107.795L100.707 83.1382L100.707 70.785H8.29348ZM43.5402 50.31H41.0468V65.52H43.5402V50.31ZM49.611 63.2706C50.2615 63.2706 52.2128 63.0564 52.2128 60.6999V55.2372H54.7062V65.52H52.2128V64.6631C51.5623 65.3058 50.4783 65.52 49.611 65.52C48.4185 65.52 47.4428 65.1986 46.684 64.4489C45.8167 63.6991 45.3831 62.4137 45.3831 61.0213V55.2372H47.8765V61.1284C47.8765 61.8782 48.0933 63.2706 49.611 63.2706ZM57.0911 51.4882H59.5845V55.2372H61.3802V57.5937H59.5845V65.52H57.0911V57.5937H55.4039V55.2372H57.0911V51.4882ZM67.173 63.1635C67.9319 63.1635 68.6907 62.8422 69.2328 62.4137L69.558 62.0924L71.2925 63.8062L70.8589 64.1275C69.8832 64.9844 68.5823 65.52 67.173 65.52C64.1376 65.52 61.8611 63.2706 61.8611 60.2715C61.8611 57.2723 64.1376 55.023 67.173 55.023C68.5823 55.023 69.8832 55.5585 70.8589 56.4154L71.2925 56.7368L69.558 58.3435L69.2328 58.0221C68.6907 57.4865 67.9319 57.2723 67.173 57.2723C65.4385 57.2723 64.246 58.4506 64.246 60.1644C64.246 61.8782 65.4385 63.1635 67.173 63.1635ZM77.3633 55.023C78.5558 55.023 79.3147 55.3443 80.0735 56.0941C80.8324 56.8439 81.1576 58.1292 81.1576 59.5217V65.4129H78.6642V59.4146C78.6642 59.3907 78.6643 59.3661 78.6645 59.3409L78.665 59.2731C78.6714 58.5027 78.6815 57.2723 77.2549 57.2723C76.6045 57.2723 74.9784 57.4865 74.9784 59.843V65.52H72.485V50.31H74.9784V55.8799C75.6288 55.2372 76.4961 55.023 77.3633 55.023ZM68.7991 60.2715C68.7991 61.218 68.0226 61.9853 67.0646 61.9853C66.1067 61.9853 65.3301 61.218 65.3301 60.2715C65.3301 59.325 66.1067 58.5577 67.0646 58.5577C68.0226 58.5577 68.7991 59.325 68.7991 60.2715ZM34.0003 63.1635C35.4096 63.1635 36.7105 62.628 37.5777 61.7711L37.903 61.4497L39.5291 63.0564L39.2039 63.3778C37.903 64.7702 35.9516 65.52 34.0003 65.52C29.9892 65.52 26.9538 62.3066 26.9538 58.1292C26.9538 53.9518 29.9892 50.7384 34.1087 50.8456C36.06 50.8456 37.903 51.5954 39.3123 52.9878L39.6375 53.3092L38.0114 54.9158L37.6862 54.5945C36.7105 53.6305 35.4096 53.0949 34.1087 53.0949C31.2901 53.0949 29.3388 55.2372 29.3388 58.1292C29.3388 61.0213 31.2901 63.1635 34.0003 63.1635Z" fill="#F2F2F2"/>
<path fill-rule="evenodd" clip-rule="evenodd" d="M54.5 0L109 29.25V87.75L54.5 117L0 87.75V29.25L54.5 0ZM1.18478 29.9458L54.5 1.33163L107.815 29.9458V87.0542L54.5 115.668L1.18478 87.0542V29.9458Z" fill="#F2F2F2"/>
</svg>
