<svg width="29" height="31" viewBox="0 0 29 31" fill="none" xmlns="http://www.w3.org/2000/svg">
<path d="M14.4585 0C6.48137 0 0 6.31013 0 14.0764C0 19.254 2.90831 23.8652 7.22923 26.2922V30.4181H21.7708V26.2922C26.0917 23.8652 29 19.3349 29 14.0764C29 6.31013 22.5186 0 14.4585 0ZM12.9628 13.0248H16.0372C18.5301 13.0248 20.6074 15.0472 20.6074 17.4742C20.6074 19.9012 18.5301 21.9237 16.0372 21.9237V24.2697H12.9628V21.9237C10.4699 21.9237 8.39255 19.9012 8.39255 17.4742H11.467C11.467 18.2832 12.1318 18.9304 12.9628 18.9304H16.0372C16.8682 18.9304 17.533 18.2832 17.533 17.4742C17.533 16.6652 16.8682 16.018 16.0372 16.018H12.9628C10.4699 16.018 8.39255 13.9955 8.39255 11.5686C8.39255 9.1416 10.4699 7.11912 12.9628 7.11912V4.77305H16.0372V7.11912C18.5301 7.11912 20.6074 9.1416 20.6074 11.5686H17.533C17.533 10.7596 16.8682 10.1124 16.0372 10.1124H12.9628C12.1318 10.1124 11.467 10.7596 11.467 11.5686C11.467 12.3776 12.1318 13.0248 12.9628 13.0248Z" fill="#FFDB3B"/>
</svg>
