<svg width="59" height="36" viewBox="0 0 59 36" fill="none" xmlns="http://www.w3.org/2000/svg">
<path d="M53.4952 6.15075L43.5887 6.24121V19.809H40.1664V0H7.38486V4.34171H13.3288V7.41709H7.38486H0V10.4925H7.38486V13.206H20.4435V16.2814H7.38486H0V19.3568H7.38486V29.9397H12.9685C13.4188 33.3769 16.3007 36 19.723 36C23.2353 36 26.1172 33.3769 26.4774 29.9397H37.8249C38.2752 33.3769 41.1571 36 44.5793 36C48.0016 36 50.9735 33.3769 51.3338 29.9397H58.6286V19.809L53.4952 6.15075ZM19.723 33.0151C17.6516 33.0151 15.9405 31.2965 15.9405 29.2161C15.9405 27.1357 17.6516 25.4171 19.723 25.4171C21.7943 25.4171 23.5055 27.1357 23.5055 29.2161C23.5055 31.2965 21.7943 33.0151 19.723 33.0151ZM44.5793 33.0151C42.508 33.0151 40.7968 31.2965 40.7968 29.2161C40.7968 27.1357 42.508 25.4171 44.5793 25.4171C46.6507 25.4171 48.3618 27.1357 48.3618 29.2161C48.3618 31.2965 46.6507 33.0151 44.5793 33.0151Z" fill="#FFDB3B"/>
</svg>
