<svg width="130" height="94" viewBox="0 0 130 94" fill="none" xmlns="http://www.w3.org/2000/svg">
<path d="M76.7411 67.085C71.4829 67.085 67.2207 71.3232 67.2207 76.5519C67.2207 81.7806 71.4829 86.0188 76.7411 86.0188C81.9993 86.0188 86.2614 81.7806 86.2614 76.5519C86.2614 71.3232 81.9993 67.085 76.7411 67.085ZM76.7411 82.1146C73.6487 82.1146 71.147 79.6269 71.147 76.5519C71.147 73.4769 73.6487 70.9892 76.7411 70.9892C79.8334 70.9892 82.3351 73.4769 82.3351 76.5519C82.3351 79.6154 79.8334 82.1146 76.7411 82.1146Z" fill="white"/>
<path d="M97.8312 71.6226C95.1095 71.6226 92.9089 73.8109 92.9089 76.5173V85.4775H88.832V67.6147H92.9089V70.3673C92.9089 70.3673 94.6462 67.6147 98.2134 67.6147H99.4643V71.6226H97.8312Z" fill="white"/>
<path d="M56.5194 67.6147L59.6002 79.9839L62.9937 67.6147H67.0474L61.8239 85.4775H57.7818L54.5852 73.0507L51.3886 85.4775H47.3465L42.123 67.6147H46.1651L49.5587 79.9839L52.6395 67.6147H56.5194Z" fill="white"/>
<path d="M111.488 75.8493C114.384 74.2254 116.341 71.1389 116.341 67.6147H112.264C112.264 70.5861 109.832 73.0161 106.832 73.0161H106.288V59H102.211V85.4775H106.288V77.0701H106.774C107.168 77.0701 107.689 77.335 107.921 77.6459L113.7 85.4775H118.588L111.488 75.8493Z" fill="white"/>
<path d="M32.441 67.0849C28.0051 67.0849 24.5537 69.9527 23.1639 74.6746C21.0328 71.4844 19.4113 67.6608 18.4616 64.436H13.6783V76.7937C13.6783 79.2353 11.6862 81.2162 9.23081 81.2162C6.77544 81.2162 4.78334 79.2353 4.78334 76.7937V64.436H0V76.7937C0 81.8497 4.14634 86.0073 9.23081 86.0073C14.3153 86.0073 18.4616 81.8497 18.4616 76.7937V74.7207C19.3882 76.644 20.5232 78.5904 21.913 80.3179L18.9944 94H23.882L26.0015 84.0724C27.8546 85.2472 29.9972 86.0073 32.441 86.0073C37.6761 86.0073 41.9498 81.746 41.9498 76.5288C41.9382 71.3232 37.6761 67.0849 32.441 67.0849ZM32.441 81.2277C30.5068 81.2277 28.7116 80.41 27.067 79.0971L27.4724 77.2314L27.484 77.1623C27.843 75.1813 28.9664 71.8414 32.4526 71.8414C35.0586 71.8414 37.178 73.949 37.178 76.5403C37.1665 79.1201 35.047 81.2277 32.441 81.2277Z" fill="white"/>
<path d="M119.433 68.0523H118.066V67.6377H121.251V68.0523H119.885V71.6686H119.421V68.0523H119.433Z" fill="white"/>
<path d="M122.107 67.6377H122.571L124.053 69.8374L125.536 67.6377H125.999V71.6686H125.536V68.3978L124.053 70.563H124.03L122.547 68.4093V71.6686H122.096V67.6377H122.107Z" fill="white"/>
<path d="M3.34 12H4.523V2.575H3.717C3.197 3.602 2.508 3.771 1.156 3.823V4.629H3.34V12ZM10.0761 12.169C12.5851 12.169 13.7421 10.271 13.7421 7.281C13.7421 4.304 12.5851 2.406 10.0761 2.406C7.56713 2.406 6.41013 4.304 6.41013 7.281C6.41013 10.271 7.56713 12.169 10.0761 12.169ZM10.0761 3.394C11.5581 3.394 12.4811 4.668 12.4811 7.281C12.4811 9.907 11.5581 11.181 10.0761 11.181C8.59413 11.181 7.67113 9.907 7.67113 7.281C7.67113 4.668 8.59413 3.394 10.0761 3.394ZM18.6709 12.169C21.1799 12.169 22.3369 10.271 22.3369 7.281C22.3369 4.304 21.1799 2.406 18.6709 2.406C16.1619 2.406 15.0049 4.304 15.0049 7.281C15.0049 10.271 16.1619 12.169 18.6709 12.169ZM18.6709 3.394C20.1529 3.394 21.0759 4.668 21.0759 7.281C21.0759 9.907 20.1529 11.181 18.6709 11.181C17.1889 11.181 16.2659 9.907 16.2659 7.281C16.2659 4.668 17.1889 3.394 18.6709 3.394ZM23.4566 5.227C23.4566 6.839 24.1716 7.97 25.5756 7.97C27.0056 7.97 27.7206 6.839 27.7206 5.227C27.7206 3.615 27.0056 2.484 25.5756 2.484C24.1716 2.484 23.4566 3.615 23.4566 5.227ZM25.5626 12H26.8756L33.3756 2.575H32.0626L25.5626 12ZM26.7326 5.227C26.7326 6.514 26.3296 7.255 25.5756 7.255C24.8476 7.255 24.4446 6.514 24.4446 5.227C24.4446 3.927 24.8476 3.186 25.5756 3.186C26.3296 3.186 26.7326 3.927 26.7326 5.227ZM31.2566 9.348C31.2566 10.96 31.9716 12.091 33.3756 12.091C34.8056 12.091 35.5206 10.96 35.5206 9.348C35.5206 7.736 34.8056 6.605 33.3756 6.605C31.9716 6.605 31.2566 7.736 31.2566 9.348ZM34.5326 9.348C34.5326 10.635 34.1296 11.376 33.3756 11.376C32.6476 11.376 32.2446 10.635 32.2446 9.348C32.2446 8.048 32.6476 7.307 33.3756 7.307C34.1296 7.307 34.5326 8.048 34.5326 9.348ZM43.7672 2.575V8.997C43.7672 10.7 42.8962 11.09 42.1292 11.09C41.1932 11.09 40.4132 10.401 40.4132 9.088H39.1782C39.1782 11.129 40.2962 12.169 42.1292 12.169C43.9752 12.169 45.0932 11.064 45.0932 9.01V2.575H43.7672ZM53.397 8.529C53.397 5.994 51.668 4.889 50.043 4.889C48.418 4.889 46.689 5.994 46.689 8.529C46.689 11.064 48.418 12.169 50.043 12.169C51.668 12.169 53.397 11.064 53.397 8.529ZM50.043 11.129C48.977 11.129 47.95 10.388 47.95 8.529C47.95 6.618 48.977 5.929 50.043 5.929C51.109 5.929 52.136 6.67 52.136 8.529C52.136 10.323 51.109 11.129 50.043 11.129ZM55.995 2.575H54.812V12H55.995V10.947C56.424 11.688 57.165 12.169 58.283 12.169C59.882 12.169 61.273 10.843 61.273 8.529C61.273 6.228 59.882 4.889 58.283 4.889C57.165 4.889 56.424 5.37 55.995 6.111V2.575ZM57.984 11.155C56.931 11.155 55.943 10.375 55.943 8.529C55.943 6.683 56.931 5.903 57.984 5.903C59.193 5.903 59.986 6.865 59.986 8.529C59.986 10.193 59.193 11.155 57.984 11.155ZM68.9026 2.406C67.3816 2.406 65.4966 3.186 65.4966 4.98C65.4966 6.553 66.7966 7.268 68.0836 7.554L69.2536 7.801C70.4366 8.061 71.2816 8.477 71.2816 9.465C71.2816 10.388 70.4756 11.051 69.0846 11.051C67.6416 11.051 66.7316 10.375 66.4846 9.075H65.1846C65.4316 10.96 66.8356 12.169 69.0586 12.169C70.9306 12.169 72.6466 11.194 72.6466 9.348C72.6466 7.45 70.9176 6.904 69.4746 6.592L68.3826 6.345C67.5116 6.15 66.8486 5.734 66.8486 4.902C66.8486 3.849 68.1226 3.524 68.8506 3.524C69.7996 3.524 70.8656 3.888 71.1906 4.98H72.4776C72.1136 3.16 70.5926 2.406 68.9026 2.406ZM78.4252 10.999V12H79.6082V5.006H78.4252V8.854C78.4252 10.349 77.7622 11.142 76.6442 11.142C75.3572 11.142 75.1752 10.206 75.1752 9.127V5.006H73.9922V9.478C73.9922 11.077 74.6032 12.169 76.2282 12.169C77.3852 12.169 78.0222 11.662 78.4252 10.999ZM87.3088 7.346C87.1528 6.163 86.0738 4.889 84.3838 4.889C82.3168 4.889 81.0038 6.436 81.0038 8.516C81.0038 10.648 82.2648 12.169 84.2668 12.169C85.8918 12.169 87.1528 11.038 87.3868 9.725H86.1648C85.9958 10.466 85.2938 11.129 84.3058 11.129C83.2658 11.129 82.2908 10.284 82.2908 8.503C82.2908 6.748 83.2528 5.929 84.3058 5.929C85.2158 5.929 85.9438 6.514 86.1128 7.346H87.3088ZM94.6086 7.346C94.4526 6.163 93.3736 4.889 91.6836 4.889C89.6166 4.889 88.3036 6.436 88.3036 8.516C88.3036 10.648 89.5646 12.169 91.5666 12.169C93.1916 12.169 94.4526 11.038 94.6866 9.725H93.4646C93.2956 10.466 92.5936 11.129 91.6056 11.129C90.5656 11.129 89.5906 10.284 89.5906 8.503C89.5906 6.748 90.5526 5.929 91.6056 5.929C92.5156 5.929 93.2436 6.514 93.4126 7.346H94.6086ZM96.8774 8.893H102.259C102.415 6.683 101.128 4.889 98.9964 4.889C97.0854 4.889 95.6034 6.306 95.6034 8.516C95.6034 10.583 96.8254 12.169 99.0354 12.169C100.738 12.169 101.843 11.181 102.168 9.972H100.946C100.647 10.661 100.075 11.129 99.0354 11.129C97.9954 11.129 96.9294 10.401 96.8774 8.893ZM96.8904 7.879C96.9944 6.475 97.9434 5.903 98.9964 5.903C100.244 5.903 100.985 6.891 101.011 7.879H96.8904ZM107.668 7.047H108.903C108.682 5.721 107.655 4.876 106.147 4.876C104.6 4.876 103.352 5.591 103.352 6.826C103.352 8.126 104.392 8.568 105.341 8.763L106.381 8.971C107.135 9.127 107.798 9.426 107.798 10.128C107.798 10.778 107.07 11.168 106.173 11.168C105.133 11.168 104.574 10.635 104.392 9.738H103.144C103.274 10.96 104.314 12.169 106.147 12.169C107.746 12.169 108.994 11.376 108.994 9.998C108.994 8.646 107.876 8.165 106.602 7.918L105.614 7.723C104.938 7.593 104.548 7.333 104.548 6.774C104.548 6.137 105.328 5.89 106.017 5.89C106.836 5.89 107.486 6.215 107.668 7.047ZM114.498 7.047H115.733C115.512 5.721 114.485 4.876 112.977 4.876C111.43 4.876 110.182 5.591 110.182 6.826C110.182 8.126 111.222 8.568 112.171 8.763L113.211 8.971C113.965 9.127 114.628 9.426 114.628 10.128C114.628 10.778 113.9 11.168 113.003 11.168C111.963 11.168 111.404 10.635 111.222 9.738H109.974C110.104 10.96 111.144 12.169 112.977 12.169C114.576 12.169 115.824 11.376 115.824 9.998C115.824 8.646 114.706 8.165 113.432 7.918L112.444 7.723C111.768 7.593 111.378 7.333 111.378 6.774C111.378 6.137 112.158 5.89 112.847 5.89C113.666 5.89 114.316 6.215 114.498 7.047ZM4.497 17.575L1 27H2.352L3.08 24.959H7.409L8.15 27H9.58L6.031 17.575H4.497ZM3.483 23.828L5.225 18.914L6.993 23.828H3.483ZM11.701 27V23.204C11.701 21.709 12.377 20.916 13.391 20.916C14.678 20.916 14.886 21.852 14.886 22.931V27H16.069V23.204C16.069 21.709 16.745 20.916 17.759 20.916C19.046 20.916 19.254 21.852 19.254 22.931V27H20.437V22.58C20.437 20.981 19.8 19.889 18.175 19.889C17.2 19.889 16.381 20.266 15.822 21.124C15.51 20.357 14.873 19.889 13.807 19.889C12.754 19.889 12.104 20.396 11.701 21.059V20.006H10.518V27H11.701ZM28.4634 23.529C28.4634 20.994 26.7344 19.889 25.1094 19.889C23.4844 19.889 21.7554 20.994 21.7554 23.529C21.7554 26.064 23.4844 27.169 25.1094 27.169C26.7344 27.169 28.4634 26.064 28.4634 23.529ZM25.1094 26.129C24.0434 26.129 23.0164 25.388 23.0164 23.529C23.0164 21.618 24.0434 20.929 25.1094 20.929C26.1754 20.929 27.2024 21.67 27.2024 23.529C27.2024 25.323 26.1754 26.129 25.1094 26.129ZM31.0614 21.059V20.006H29.8784V27H31.0614V23.204C31.0614 21.709 31.7634 20.916 32.9074 20.916C34.2594 20.916 34.4414 21.852 34.4414 22.931V27H35.6244V22.58C35.6244 20.981 35.0134 19.889 33.3234 19.889C32.1404 19.889 31.4644 20.396 31.0614 21.059ZM42.1 20.006V21.111C41.671 20.37 40.995 19.889 39.877 19.889C38.33 19.889 36.913 21.15 36.913 23.386C36.913 25.635 38.33 26.883 39.877 26.883C40.995 26.883 41.671 26.415 42.1 25.674V26.337C42.1 27.286 41.905 27.611 41.645 27.884C41.333 28.222 40.852 28.404 40.215 28.404C39.123 28.404 38.746 27.923 38.59 27.299H37.329C37.55 28.716 38.616 29.444 40.202 29.444C41.242 29.444 42.113 29.106 42.62 28.521C43.023 28.079 43.283 27.494 43.283 26.064V20.006H42.1ZM40.176 20.903C41.229 20.903 42.152 21.618 42.152 23.386C42.152 25.167 41.229 25.882 40.176 25.882C39.019 25.882 38.2 24.985 38.2 23.386C38.2 21.8 39.019 20.903 40.176 20.903ZM48.5738 18.251V20.006H47.4688V20.955H48.5738V25.245C48.5738 26.701 48.8858 27 50.2248 27H51.0828V26.012H50.4848C49.8088 26.012 49.7568 25.83 49.7568 25.102V20.955H51.0828V20.006H49.7568V18.251H48.5738ZM58.6529 23.529C58.6529 20.994 56.9239 19.889 55.2989 19.889C53.6739 19.889 51.9449 20.994 51.9449 23.529C51.9449 26.064 53.6739 27.169 55.2989 27.169C56.9239 27.169 58.6529 26.064 58.6529 23.529ZM55.2989 26.129C54.2329 26.129 53.2059 25.388 53.2059 23.529C53.2059 21.618 54.2329 20.929 55.2989 20.929C56.3649 20.929 57.3919 21.67 57.3919 23.529C57.3919 25.323 56.3649 26.129 55.2989 26.129ZM61.2508 20.006H60.0678V29.275H61.2508V25.947C61.6798 26.688 62.4208 27.169 63.5388 27.169C65.1378 27.169 66.5288 25.843 66.5288 23.529C66.5288 21.228 65.1378 19.889 63.5388 19.889C62.4208 19.889 61.6798 20.37 61.2508 21.111V20.006ZM63.2398 26.155C62.1868 26.155 61.1988 25.375 61.1988 23.529C61.1988 21.683 62.1868 20.903 63.2398 20.903C64.4488 20.903 65.2418 21.865 65.2418 23.529C65.2418 25.193 64.4488 26.155 63.2398 26.155ZM72.1815 20.006H70.9985V29.275H72.1815V25.947C72.6105 26.688 73.3515 27.169 74.4695 27.169C76.0685 27.169 77.4595 25.843 77.4595 23.529C77.4595 21.228 76.0685 19.889 74.4695 19.889C73.3515 19.889 72.6105 20.37 72.1815 21.111V20.006ZM74.1705 26.155C73.1175 26.155 72.1295 25.375 72.1295 23.529C72.1295 21.683 73.1175 20.903 74.1705 20.903C75.3795 20.903 76.1725 21.865 76.1725 23.529C76.1725 25.193 75.3795 26.155 74.1705 26.155ZM82.3282 21.241V19.98C82.1982 19.967 82.0942 19.967 81.9772 19.967C81.0672 19.993 80.3522 20.435 80.0012 21.228V20.006H78.8442V27H80.0272V23.334C80.0272 21.8 80.5732 21.189 81.6652 21.189C81.8602 21.189 82.0812 21.215 82.3282 21.241ZM89.5913 23.529C89.5913 20.994 87.8623 19.889 86.2373 19.889C84.6123 19.889 82.8833 20.994 82.8833 23.529C82.8833 26.064 84.6123 27.169 86.2373 27.169C87.8623 27.169 89.5913 26.064 89.5913 23.529ZM86.2373 26.129C85.1713 26.129 84.1443 25.388 84.1443 23.529C84.1443 21.618 85.1713 20.929 86.2373 20.929C87.3033 20.929 88.3303 21.67 88.3303 23.529C88.3303 25.323 87.3033 26.129 86.2373 26.129ZM93.1544 25.362L91.2564 20.006H89.9434L92.5824 27H93.6354L96.2744 20.006H95.0524L93.1544 25.362ZM98.3973 17.575H97.2143V19.005H98.3973V17.575ZM98.3973 20.006H97.2143V27H98.3973V20.006ZM105.071 17.575V21.111C104.642 20.37 103.901 19.889 102.783 19.889C101.184 19.889 99.7929 21.228 99.7929 23.529C99.7929 25.843 101.184 27.169 102.783 27.169C103.901 27.169 104.642 26.688 105.071 25.947V27H106.254V17.575H105.071ZM103.082 20.903C104.135 20.903 105.123 21.683 105.123 23.529C105.123 25.375 104.135 26.155 103.082 26.155C101.873 26.155 101.08 25.193 101.08 23.529C101.08 21.865 101.873 20.903 103.082 20.903ZM108.913 23.893H114.295C114.451 21.683 113.164 19.889 111.032 19.889C109.121 19.889 107.639 21.306 107.639 23.516C107.639 25.583 108.861 27.169 111.071 27.169C112.774 27.169 113.879 26.181 114.204 24.972H112.982C112.683 25.661 112.111 26.129 111.071 26.129C110.031 26.129 108.965 25.401 108.913 23.893ZM108.926 22.879C109.03 21.475 109.979 20.903 111.032 20.903C112.28 20.903 113.021 21.891 113.047 22.879H108.926ZM119.157 21.241V19.98C119.027 19.967 118.923 19.967 118.806 19.967C117.896 19.993 117.181 20.435 116.83 21.228V20.006H115.673V27H116.856V23.334C116.856 21.8 117.402 21.189 118.494 21.189C118.689 21.189 118.91 21.215 119.157 21.241ZM124.235 22.047H125.47C125.249 20.721 124.222 19.876 122.714 19.876C121.167 19.876 119.919 20.591 119.919 21.826C119.919 23.126 120.959 23.568 121.908 23.763L122.948 23.971C123.702 24.127 124.365 24.426 124.365 25.128C124.365 25.778 123.637 26.168 122.74 26.168C121.7 26.168 121.141 25.635 120.959 24.738H119.711C119.841 25.96 120.881 27.169 122.714 27.169C124.313 27.169 125.561 26.376 125.561 24.998C125.561 23.646 124.443 23.165 123.169 22.918L122.181 22.723C121.505 22.593 121.115 22.333 121.115 21.774C121.115 21.137 121.895 20.89 122.584 20.89C123.403 20.89 124.053 21.215 124.235 22.047ZM2.235 34.499V35.006H1.26V35.955H2.235V42H3.418V35.955H4.731V35.006H3.418V34.434C3.418 33.706 3.522 33.563 4.146 33.563H4.731V32.575H4.12C2.534 32.575 2.235 33.043 2.235 34.499ZM12.0103 38.529C12.0103 35.994 10.2813 34.889 8.65629 34.889C7.03129 34.889 5.30229 35.994 5.30229 38.529C5.30229 41.064 7.03129 42.169 8.65629 42.169C10.2813 42.169 12.0103 41.064 12.0103 38.529ZM8.65629 41.129C7.59029 41.129 6.56329 40.388 6.56329 38.529C6.56329 36.618 7.59029 35.929 8.65629 35.929C9.72229 35.929 10.7493 36.67 10.7493 38.529C10.7493 40.323 9.72229 41.129 8.65629 41.129ZM16.9093 36.241V34.98C16.7793 34.967 16.6753 34.967 16.5583 34.967C15.6483 34.993 14.9333 35.435 14.5823 36.228V35.006H13.4253V42H14.6083V38.334C14.6083 36.8 15.1543 36.189 16.2463 36.189C16.4413 36.189 16.6623 36.215 16.9093 36.241ZM21.9243 38.893H27.3063C27.4623 36.683 26.1753 34.889 24.0433 34.889C22.1323 34.889 20.6503 36.306 20.6503 38.516C20.6503 40.583 21.8723 42.169 24.0823 42.169C25.7853 42.169 26.8903 41.181 27.2153 39.972H25.9933C25.6943 40.661 25.1223 41.129 24.0823 41.129C23.0423 41.129 21.9763 40.401 21.9243 38.893ZM21.9373 37.879C22.0413 36.475 22.9903 35.903 24.0433 35.903C25.2913 35.903 26.0323 36.891 26.0583 37.879H21.9373ZM29.868 36.059V35.006H28.685V42H29.868V38.204C29.868 36.709 30.57 35.916 31.714 35.916C33.066 35.916 33.248 36.852 33.248 37.931V42H34.431V37.58C34.431 35.981 33.82 34.889 32.13 34.889C30.947 34.889 30.271 35.396 29.868 36.059ZM36.5386 33.251V35.006H35.4336V35.955H36.5386V40.245C36.5386 41.701 36.8506 42 38.1896 42H39.0476V41.012H38.4496C37.7736 41.012 37.7216 40.83 37.7216 40.102V35.955H39.0476V35.006H37.7216V33.251H36.5386ZM41.1577 38.893H46.5397C46.6957 36.683 45.4087 34.889 43.2767 34.889C41.3657 34.889 39.8837 36.306 39.8837 38.516C39.8837 40.583 41.1057 42.169 43.3157 42.169C45.0187 42.169 46.1237 41.181 46.4487 39.972H45.2267C44.9277 40.661 44.3557 41.129 43.3157 41.129C42.2757 41.129 41.2097 40.401 41.1577 38.893ZM41.1707 37.879C41.2747 36.475 42.2237 35.903 43.2767 35.903C44.5247 35.903 45.2657 36.891 45.2917 37.879H41.1707ZM51.4024 36.241V34.98C51.2724 34.967 51.1684 34.967 51.0514 34.967C50.1414 34.993 49.4264 35.435 49.0754 36.228V35.006H47.9184V42H49.1014V38.334C49.1014 36.8 49.6474 36.189 50.7394 36.189C50.9344 36.189 51.1554 36.215 51.4024 36.241ZM53.7225 35.006H52.5395V44.275H53.7225V40.947C54.1515 41.688 54.8925 42.169 56.0105 42.169C57.6095 42.169 59.0005 40.843 59.0005 38.529C59.0005 36.228 57.6095 34.889 56.0105 34.889C54.8925 34.889 54.1515 35.37 53.7225 36.111V35.006ZM55.7115 41.155C54.6585 41.155 53.6705 40.375 53.6705 38.529C53.6705 36.683 54.6585 35.903 55.7115 35.903C56.9205 35.903 57.7135 36.865 57.7135 38.529C57.7135 40.193 56.9205 41.155 55.7115 41.155ZM63.8692 36.241V34.98C63.7392 34.967 63.6352 34.967 63.5182 34.967C62.6082 34.993 61.8932 35.435 61.5422 36.228V35.006H60.3852V42H61.5682V38.334C61.5682 36.8 62.1142 36.189 63.2062 36.189C63.4012 36.189 63.6222 36.215 63.8692 36.241ZM66.1893 32.575H65.0063V34.005H66.1893V32.575ZM66.1893 35.006H65.0063V42H66.1893V35.006ZM72.0699 37.047H73.3049C73.0839 35.721 72.0569 34.876 70.5489 34.876C69.0019 34.876 67.7539 35.591 67.7539 36.826C67.7539 38.126 68.7939 38.568 69.7429 38.763L70.7829 38.971C71.5369 39.127 72.1999 39.426 72.1999 40.128C72.1999 40.778 71.4719 41.168 70.5749 41.168C69.5349 41.168 68.9759 40.635 68.7939 39.738H67.5459C67.6759 40.96 68.7159 42.169 70.5489 42.169C72.1479 42.169 73.3959 41.376 73.3959 39.998C73.3959 38.646 72.2779 38.165 71.0039 37.918L70.0159 37.723C69.3399 37.593 68.9499 37.333 68.9499 36.774C68.9499 36.137 69.7299 35.89 70.4189 35.89C71.2379 35.89 71.8879 36.215 72.0699 37.047ZM75.689 38.893H81.071C81.227 36.683 79.94 34.889 77.808 34.889C75.897 34.889 74.415 36.306 74.415 38.516C74.415 40.583 75.637 42.169 77.847 42.169C79.55 42.169 80.655 41.181 80.98 39.972H79.758C79.459 40.661 78.887 41.129 77.847 41.129C76.807 41.129 75.741 40.401 75.689 38.893ZM75.702 37.879C75.806 36.475 76.755 35.903 77.808 35.903C79.056 35.903 79.797 36.891 79.823 37.879H75.702ZM86.4791 37.047H87.7141C87.4931 35.721 86.4661 34.876 84.9581 34.876C83.4111 34.876 82.1631 35.591 82.1631 36.826C82.1631 38.126 83.2031 38.568 84.1521 38.763L85.1921 38.971C85.9461 39.127 86.6091 39.426 86.6091 40.128C86.6091 40.778 85.8811 41.168 84.9841 41.168C83.9441 41.168 83.3851 40.635 83.2031 39.738H81.9551C82.0851 40.96 83.1251 42.169 84.9581 42.169C86.5571 42.169 87.8051 41.376 87.8051 39.998C87.8051 38.646 86.6871 38.165 85.4131 37.918L84.4251 37.723C83.7491 37.593 83.3591 37.333 83.3591 36.774C83.3591 36.137 84.1391 35.89 84.8281 35.89C85.6471 35.89 86.2971 36.215 86.4791 37.047Z" fill="#979797"/>
</svg>
