<?xml version="1.0" encoding="UTF-8"?>
<svg width="164px" height="99px" viewBox="0 0 164 99" version="1.1" xmlns="http://www.w3.org/2000/svg" xmlns:xlink="http://www.w3.org/1999/xlink">
    <!-- Generator: Sketch 64 (93537) - https://sketch.com -->
    <title>Group</title>
    <desc>Created with Sketch.</desc>
    <g id="Page-1" stroke="none" stroke-width="1" fill="none" fill-rule="evenodd">
        <g id="Asset-2" transform="translate(-50.000000, -50.000000)" fill="#FFFFFF" fill-rule="nonzero">
            <g id="Group" transform="translate(50.000000, 50.000000)">
                <path d="M30.56,57.12 L27.05,57.12 L27.05,37 C27.05,35.4133333 27.15,33.4733333 27.35,31.18 L27.26,31.18 C27.0431791,32.1737972 26.7420905,33.1473171 26.36,34.09 L16.15,57.12 L14.44,57.12 L4.2,34.21 C3.80505449,33.2169255 3.50374539,32.1891267 3.3,31.14 L3.22,31.14 C3.32666667,32.34 3.38,34.2933333 3.38,37 L3.38,57.12 L0,57.12 L0,27.12 L4.64,27.12 L13.83,48 C14.3697199,49.168994 14.8242374,50.3754708 15.19,51.61 L15.33,51.61 C16.03,49.68 16.51,48.45 16.78,47.92 L26.16,27.06 L30.56,27.06 L30.56,57.06" id="Path"></path>
                <path d="M40.9,28 C40.9179469,28.6079276 40.6739352,29.1942841 40.23,29.61 C39.804184,30.0220284 39.2324638,30.248559 38.64,30.24 C38.0530326,30.2556638 37.4841594,30.0360355 37.06,29.63 C36.6191859,29.2053046 36.382389,28.6114907 36.41,28 C36.3894264,27.4189267 36.601832,26.8537118 37,26.43 C37.4166064,25.9945195 37.9975252,25.7548905 38.6,25.77 C39.2033011,25.7555878 39.785812,25.990763 40.21,26.42 C40.6483302,26.8287766 40.8980697,27.4006437 40.9,28 M40.31,57.13 L36.89,57.13 L36.89,35.68 L40.31,35.68 L40.31,57.12" id="Shape"></path>
                <path d="M60.6,56.14 C58.8199008,57.1747263 56.7884398,57.6972998 54.73,57.65 C52.8872975,57.6801039 51.0704454,57.2138015 49.47,56.3 C47.9214143,55.3963942 46.6649375,54.0670278 45.85,52.47 C44.9641717,50.7560443 44.5174911,48.8490617 44.55,46.92 C44.3893215,43.7897688 45.4669761,40.7220453 47.55,38.38 C49.6640966,36.1959348 52.6134046,35.0234938 55.65,35.16 C57.3786675,35.1190543 59.0923476,35.4892093 60.65,36.24 L60.65,39.76 C59.1653385,38.6859166 57.3824106,38.1020951 55.55,38.09 C53.4849509,38.0265356 51.5012769,38.8971481 50.15,40.46 C48.7156711,42.1798247 47.9740442,44.3726156 48.07,46.61 C47.9582588,48.7690851 48.6734459,50.8896148 50.07,52.54 C51.4271782,54.0078575 53.3629808,54.8019391 55.36,54.71 C57.2718637,54.6966488 59.1253024,54.049528 60.63,52.87 L60.63,56.14" id="Path"></path>
                <path d="M75.86,39.16 C75.0908663,38.6455211 74.1733572,38.3994458 73.25,38.46 C71.7217513,38.4664669 70.3123363,39.2854513 69.55,40.61 C68.5398429,42.2905588 68.0460366,44.2310091 68.13,46.19 L68.13,57.12 L64.71,57.12 L64.71,35.68 L68.13,35.68 L68.13,40.1 L68.22,40.1 C68.6089451,38.7489118 69.3674242,37.5332673 70.41,36.59 C71.3412499,35.748497 72.5549263,35.2880139 73.81,35.3 C74.4895578,35.2741116 75.167945,35.3758697 75.81,35.6 L75.81,39.16" id="Path"></path>
                <path d="M97.4,46.32 C97.5376303,49.3326548 96.4975851,52.280645 94.5,54.54 C92.4846631,56.6498922 89.6546612,57.7840811 86.74,57.65 C83.9025216,57.7859761 81.1440333,56.6927839 79.17,54.65 C77.2119753,52.458873 76.1953272,49.5849562 76.34,46.65 C76.1746109,43.5759832 77.2150446,40.5587256 79.24,38.24 C81.3441894,36.1175757 84.2557742,34.9966155 87.24,35.16 C90.0476754,35.0092828 92.7783701,36.1074174 94.7,38.16 C96.5,40.16 97.4,42.87 97.4,46.34 M93.89,46.46 C94.0341938,44.2478725 93.401053,42.0548708 92.1,40.26 C90.8293366,38.7837741 88.9447738,37.9819111 87,38.09 C85.0145683,37.9951345 83.0937482,38.8083552 81.78,40.3 C80.4010235,42.0726993 79.7181158,44.2885925 79.86,46.53 C79.7347027,48.7004312 80.422818,50.8396496 81.79,52.53 C83.1202243,53.987267 85.0288891,54.7785753 87,54.69 C88.9446925,54.8127686 90.8362057,54.0258695 92.12,52.56 C93.4124395,50.7841415 94.0422155,48.6117683 93.9,46.42" id="Shape"></path>
                <path d="M113.31,51.38 C113.357567,53.1443793 112.563071,54.8261871 111.17,55.91 C109.534437,57.136106 107.521586,57.751635 105.48,57.65 C103.62678,57.6883991 101.795889,57.2401583 100.17,56.35 L100.17,52.66 C101.729827,53.9608886 103.69892,54.6691952 105.73,54.66 C108.44,54.66 109.8,53.66 109.8,51.66 C109.834987,50.9110028 109.54739,50.1829083 109.01,49.66 C107.905003,48.8083301 106.686593,48.1149809 105.39,47.6 C103.877821,47.0409529 102.51075,46.148939 101.39,44.99 C99.533889,42.4385968 99.9709183,38.8855492 102.39,36.86 C103.920159,35.6345739 105.84116,35.0025256 107.8,35.08 C109.383382,35.0554183 110.950963,35.3976849 112.38,36.08 L112.38,39.54 C110.972788,38.5160391 109.27005,37.9788869 107.53,38.01 C106.55287,37.9622711 105.590064,38.2596083 104.81,38.85 C104.154179,39.367219 103.783025,40.1652014 103.81,41 C103.758549,41.8097721 104.048701,42.6040638 104.61,43.19 C105.598727,43.9660308 106.706329,44.5772377 107.89,45 C109.496228,45.5871987 110.956324,46.5151103 112.17,47.72 C113.006707,48.7212398 113.444663,49.9959432 113.4,51.3" id="Path"></path>
                <path d="M136.68,46.32 C136.821429,49.3314428 135.784894,52.2796488 133.79,54.54 C131.773158,56.647666 128.944212,57.7814315 126.03,57.65 C123.192084,57.788613 120.432546,56.6950048 118.46,54.65 C116.501975,52.458873 115.485327,49.5849562 115.63,46.65 C115.63,43.11 116.63,40.3 118.53,38.24 C120.632027,36.1142683 123.54516,34.9927122 126.53,35.16 C129.337215,35.0120564 132.066782,36.1097378 133.99,38.16 C135.78,40.16 136.68,42.87 136.68,46.34 M133.17,46.46 C133.317079,44.249075 132.687509,42.0561884 131.39,40.26 C130.111388,38.7908592 128.224333,37.996893 126.28,38.11 C124.294568,38.0151345 122.373748,38.8283552 121.06,40.32 C119.673259,42.0891017 118.986246,44.3067644 119.13,46.55 C119.008477,48.7216031 119.700094,50.8606256 121.07,52.55 C122.397756,54.0107795 124.308148,54.8028037 126.28,54.71 C128.224177,54.8296883 130.114385,54.0433322 131.4,52.58 C132.688894,50.8028196 133.315098,48.6305625 133.17,46.44" id="Shape"></path>
                <path d="M150.72,28.39 C150.020572,28.0109668 149.23544,27.8181271 148.44,27.83 C146.04,27.83 144.85,29.34 144.85,32.37 L144.85,35.68 L149.85,35.68 L149.85,38.59 L144.85,38.59 L144.85,57.12 L141.42,57.12 L141.42,38.59 L137.79,38.59 L137.79,35.68 L141.42,35.68 L141.42,32.2 C141.334909,30.2580877 142.025679,28.3620695 143.34,26.93 C144.611152,25.597884 146.389669,24.8704741 148.23,24.93 C149.075833,24.8965791 149.920431,25.0220817 150.72,25.3 L150.72,28.4" id="Path"></path>
                <path d="M163.16,56.91 C162.16623,57.4096376 161.061303,57.6471452 159.95,57.6 C156.21,57.6 154.35,55.5 154.35,51.28 L154.35,38.59 L150.67,38.59 L150.67,35.68 L154.35,35.68 L154.35,30.44 L157.77,29.33 L157.77,35.68 L163.16,35.68 L163.16,38.59 L157.77,38.59 L157.77,50.69 C157.678543,51.7664038 157.938164,52.8434779 158.51,53.76 C159.136436,54.4279697 160.039149,54.7646376 160.95,54.67 C161.742442,54.6888681 162.519065,54.446393 163.16,53.98 L163.16,56.91" id="Path"></path>
                <path d="M57,77.41 C57.0851444,80.072311 55.9866006,82.6355797 54,84.41 C51.8096403,86.2579156 49.0027258,87.2114094 46.14,87.08 L42.14,87.08 L42.14,98.45 L38.66,98.45 L38.66,68.45 L46.89,68.45 C50.09,68.45 52.58,69.23 54.34,70.8 C56.1549644,72.5039872 57.1217148,74.9245252 56.98,77.41 M53.3,77.6 C53.3,73.6 50.9666667,71.6 46.3,71.6 L42.17,71.6 L42.17,83.91 L45.85,83.91 C47.8307165,84.0474305 49.7944515,83.465057 51.38,82.27 C52.701908,81.077161 53.4086074,79.3472198 53.3,77.57" id="Shape"></path>
                <path d="M74.86,98.48 L71.43,98.48 L71.43,95.13 L71.35,95.13 C70.0845724,97.5791493 67.5254556,99.0842833 64.77,99 C62.9475239,99.1042592 61.1555043,98.4985566 59.77,97.31 C58.5116914,96.148603 57.8308948,94.4905338 57.91,92.78 C57.91,88.78 60.2633333,86.4466667 64.97,85.78 L71.38,84.88 C71.38,81.2533333 69.9133333,79.4366667 66.98,79.43 C64.4047919,79.417985 61.9144561,80.3500822 59.98,82.05 L59.98,78.53 C60.9690563,77.8962666 62.0575311,77.4331578 63.2,77.16 C64.4963325,76.7558116 65.842535,76.5336882 67.2,76.5 C72.22,76.5 74.7333333,79.1666667 74.74,84.5 L74.74,98.45 M71.31,87.6 L66.13,88.33 C64.800641,88.4225506 63.5184226,88.8602972 62.41,89.6 C61.6372842,90.3489818 61.2472173,91.4087861 61.35,92.48 C61.3109387,93.4721034 61.7360488,94.4258285 62.5,95.06 C63.324517,95.7420393 64.3706204,96.0978567 65.44,96.06 C67.0390204,96.1044459 68.5773687,95.4467197 69.65,94.26 C70.7684956,93.0335686 71.3640966,91.4189876 71.31,89.76 L71.31,87.62" id="Shape"></path>
                <path d="M91.4,80.51 C89.2559672,79.1749117 86.4361427,79.8228904 85.09,81.96 C84.0779352,83.6434336 83.5840568,85.5876449 83.67,87.55 L83.67,98.48 L80.25,98.48 L80.25,77 L83.67,77 L83.67,81.42 L83.76,81.42 C84.1489451,80.0689118 84.9074242,78.8532673 85.95,77.91 C86.8863087,77.0779903 88.0974624,76.6220266 89.35,76.63 C90.0455303,76.5960189 90.7411869,76.6944288 91.4,76.92 L91.4,80.48" id="Path"></path>
                <path d="M105.23,98.27 C104.232865,98.7838701 103.121208,99.0351114 102,99 C98.2733333,99 96.4066667,96.89 96.4,92.67 L96.4,79.94 L92.72,79.94 L92.72,77 L96.4,77 L96.4,71.8 L99.83,70.69 L99.83,77 L105.22,77 L105.22,79.91 L99.83,79.91 L99.83,92.02 C99.735565,93.095304 99.9916572,94.1722946 100.56,95.09 C101.192412,95.7489328 102.09055,96.0838939 103,96 C103.795322,96.0173738 104.574651,95.7751498 105.22,95.31 L105.22,98.24" id="Path"></path>
                <path d="M126.49,98.48 L123.06,98.48 L123.06,86.25 C123.06,81.71 121.41,79.44 118.06,79.44 C116.43389,79.4155446 114.882124,80.1198923 113.83,81.36 C112.669814,82.71894 112.062997,84.4644301 112.13,86.25 L112.13,98.48 L108.7,98.48 L108.7,77 L112.13,77 L112.13,80.56 L112.21,80.56 C113.577809,77.979698 116.290717,76.3984598 119.21,76.48 C121.266244,76.3521743 123.261635,77.2052226 124.59,78.78 C125.932517,80.6861542 126.585078,82.9930429 126.44,85.32 L126.44,98.45" id="Path"></path>
                <path d="M148.9,88.61 L133.8,88.61 C133.713066,90.6317731 134.395563,92.6113713 135.71,94.15 C137.048182,95.4784324 138.887406,96.17632 140.77,96.07 C143.18502,96.0755288 145.527553,95.2452191 147.4,93.72 L147.4,96.93 C145.219484,98.3964508 142.624917,99.1222283 140,99 C137.286003,99.1305765 134.658285,98.0280372 132.85,96 C131.143333,94 130.286667,91.2666667 130.28,87.8 C130.254941,85.7896366 130.696511,83.800858 131.57,81.99 C132.353391,80.331017 133.578074,78.9195183 135.11,77.91 C136.601474,76.9546554 138.338862,76.4542876 140.11,76.47 C142.57363,76.3350538 144.9639,77.3331482 146.6,79.18 C148.153333,80.9933333 148.93,83.5233333 148.93,86.77 L148.93,88.57 M145.42,85.66 C145.498875,84.0031631 144.992691,82.3713405 143.99,81.05 C143.007932,79.9245978 141.561267,79.3156698 140.07,79.4 C138.532311,79.3779886 137.055886,80.0019324 136,81.12 C134.821772,82.365937 134.075072,83.9574943 133.87,85.66 L145.42,85.66" id="Shape"></path>
                <path d="M164,80.51 C161.855967,79.1749117 159.036143,79.8228904 157.69,81.96 C156.677935,83.6434336 156.184057,85.5876449 156.27,87.55 L156.27,98.48 L152.84,98.48 L152.84,77 L156.27,77 L156.27,81.42 L156.35,81.42 C156.746095,80.0697227 157.507415,78.85507 158.55,77.91 C159.486309,77.0779903 160.697462,76.6220266 161.95,76.63 C162.650664,76.6216197 163.346475,76.7472051 164,77 L164,80.56" id="Path"></path>
                <path d="M8.61,12.08 C8.67066638,13.237099 8.17223248,14.3529958 7.27,15.08 C6.2186114,15.842602 4.93692861,16.2203983 3.64,16.15 C3.00121378,16.1390659 2.36629632,16.0483634 1.75,15.88 C1.22751557,15.7662642 0.72743598,15.5669082 0.27,15.29 L0.27,13.19 C0.755781281,13.6295166 1.32319836,13.9692874 1.94,14.19 C2.56010161,14.4269413 3.21633111,14.5554811 3.88,14.57 C5.8,14.57 6.76,13.82 6.76,12.32 C6.77328337,11.7215248 6.55472033,11.1410787 6.15,10.7 C5.38945904,9.99970818 4.53856358,9.40441768 3.62,8.93 C2.64022549,8.42953439 1.76198336,7.75135514 1.03,6.93 C0.524978959,6.27571347 0.263354384,5.46609147 0.29,4.64 C0.256513693,3.52094713 0.744121778,2.44968695 1.61,1.74 C2.57019688,0.973158985 3.77173789,0.572645315 5,0.61 C6.0087577,0.540676508 7.01895139,0.722786254 7.94,1.14 L7.94,3.14 C7.07492226,2.4987127 6.01586567,2.17393535 4.94,2.22 C4.22308698,2.19961153 3.51967049,2.41767064 2.94,2.84 C2.42581924,3.23027999 2.13162404,3.84473832 2.15,4.49 C2.13142612,4.90032885 2.2138363,5.30894596 2.39,5.68 C2.58897746,6.02808843 2.85797363,6.33113475 3.18,6.57 C3.75935782,6.99793069 4.3674591,7.38551173 5,7.73 C6.04513217,8.25330119 6.98696674,8.96137107 7.78,9.82 C8.30080708,10.4570485 8.58051447,11.2572241 8.57,12.08" id="Path"></path>
                <path d="M13.91,1.31 C13.9188202,1.61147033 13.7988019,1.9024238 13.58,2.11 C13.3654637,2.31721482 13.0782606,2.43209605 12.78,2.43 C12.4861974,2.4342963 12.2024736,2.32296165 11.99,2.12 C11.7696318,1.90933996 11.6495861,1.61468238 11.66,1.31 C11.6588412,1.01781924 11.7739744,0.737182051 11.98,0.53 C12.1875762,0.311198083 12.4785297,0.191179778 12.78,0.2 C13.081911,0.194154718 13.373602,0.309390676 13.59,0.52 C13.7985017,0.729626623 13.9138377,1.01436249 13.91,1.31 M13.62,15.87 L11.9,15.87 L11.9,5.15 L13.62,5.15 L13.62,15.87" id="Shape"></path>
                <polyline id="Path" points="19.33 15.87 17.62 15.87 17.62 0 19.33 0 19.33 15.87"></polyline>
                <path d="M31.74,5.15 L27.48,15.87 L25.79,15.87 L21.79,5.15 L23.68,5.15 L26.39,12.93 C26.5598478,13.4201291 26.6804433,13.9259604 26.75,14.44 L26.8,14.44 C26.8426926,13.9498238 26.9433965,13.4664447 27.1,13 L30,5.15 L31.79,5.15" id="Path"></path>
                <path d="M42.63,10.94 L35.08,10.94 C35.0489354,11.9569068 35.4065281,12.9474385 36.08,13.71 C36.7463039,14.3888153 37.6697605,14.7523809 38.62,14.71 C39.8268342,14.712683 40.997025,14.2955153 41.93,13.53 L41.93,15.1 C40.8293727,15.8237445 39.5251655,16.1743378 38.21,16.1 C36.856704,16.1761088 35.5424998,15.6312846 34.64,14.62 C33.7184464,13.4595278 33.2589383,11.9990755 33.35,10.52 C33.3402551,9.51726595 33.5591288,8.52549464 33.99,7.62 C34.3843082,6.80288596 34.9968794,6.11071506 35.76,5.62 C36.5093145,5.14205491 37.3812713,4.89193183 38.27,4.9 C39.5003063,4.82681393 40.6956561,5.32487635 41.51,6.25 C42.3181658,7.32665134 42.7153435,8.65648722 42.63,10 L42.63,10.9 M40.87,9.45 C40.9133526,8.62034027 40.6618544,7.80208529 40.16,7.14 C39.6612021,6.5638661 38.9201643,6.25633541 38.16,6.31 C37.4043811,6.3140038 36.6827008,6.62432634 36.16,7.17 C35.5707783,7.79630535 35.1990745,8.59581921 35.1,9.45 L40.87,9.45" id="Shape"></path>
                <path d="M51.25,6.89 C50.735122,6.56416183 50.1112426,6.45797047 49.5175591,6.59511888 C48.9238756,6.73226729 48.4097889,7.10134321 48.09,7.62 C47.5849215,8.46027941 47.3380183,9.43050454 47.38,10.41 L47.38,15.87 L45.67,15.87 L45.67,5.15 L47.38,5.15 L47.38,7.36 L47.43,7.36 C47.6226933,6.68628436 48.0002991,6.08003659 48.52,5.61 C48.9894828,5.18846499 49.5990521,4.95675736 50.23,4.96 C50.5697526,4.94752656 50.9088595,4.99839259 51.23,5.11 L51.23,6.89" id="Path"></path>
            </g>
        </g>
    </g>
</svg>