<svg width="109" height="109" viewBox="0 0 109 109" fill="none" xmlns="http://www.w3.org/2000/svg">
<path d="M93.0437 15.9563C82.7516 5.66413 69.0518 0 54.5 0C39.9482 0 26.2484 5.66413 15.9563 15.9563C5.66413 26.2484 0 39.9482 0 54.5C0 69.0518 5.66413 82.7516 15.9563 93.0437C26.2484 103.336 39.9482 109 54.5 109C69.0518 109 82.7516 103.336 93.0437 93.0437C103.336 82.7516 109 69.0518 109 54.5C109 39.9482 103.336 26.2484 93.0437 15.9563ZM92.399 92.399C82.2681 102.53 68.8215 108.102 54.523 108.102C40.2245 108.102 26.755 102.53 16.647 92.399C6.49303 82.2681 0.920997 68.8215 0.920997 54.5C0.920997 40.1785 6.49303 26.7319 16.624 16.624C26.7319 6.49303 40.1785 0.920997 54.5 0.920997C68.8215 0.920997 82.2681 6.49303 92.376 16.624C102.507 26.755 108.079 40.2015 108.079 54.5C108.079 68.7985 102.507 82.2681 92.399 92.399Z" fill="white"/>
<path d="M57.5156 66.404L58.6208 66.8875C59.2425 66.5882 59.8181 66.1967 60.4168 65.8514C61.3838 65.1836 62.443 64.3547 63.2719 63.4337C62.3048 62.9502 61.2457 62.6048 60.1405 62.3516L60.0714 62.3976C59.3576 63.7331 58.5287 64.9994 57.6077 66.2198L57.5156 66.404Z" fill="white"/>
<path d="M61.2685 74.4399C60.831 74.4399 60.5547 74.6472 60.5547 75.1537V79.0449C60.5547 79.5515 60.831 79.7587 61.2685 79.7587C61.7059 79.7587 61.9822 79.5515 61.9822 79.0449V75.1537C61.9822 74.6472 61.7059 74.4399 61.2685 74.4399Z" fill="white"/>
<path d="M34.3075 74.4629C33.8701 74.4629 33.5938 74.6471 33.5938 75.1536V76.443C33.5938 76.9496 33.8701 77.1568 34.3075 77.1568C34.745 77.1568 35.0213 76.9496 35.0213 76.443V75.1536C35.0213 74.6471 34.745 74.4629 34.3075 74.4629Z" fill="white"/>
<path d="M55.4444 65.9894C55.8818 66.0124 56.2963 66.1966 56.7338 66.1276C57.7008 64.8842 58.5988 63.5718 59.3356 62.2133L59.3126 62.1442C57.9541 61.8219 56.4805 61.6607 55.0299 61.6377C54.9608 63.1343 54.9839 64.4467 55.0299 65.9203L55.4444 65.9894Z" fill="white"/>
<path d="M57.3086 32.6492C58.2756 33.9386 59.1506 35.274 59.9565 36.6095C61.0617 36.3792 62.0747 35.9648 63.0878 35.5503L63.1339 35.4813C61.7754 34.1228 60.1637 32.9485 58.4829 32.1196C58.0914 32.3038 57.654 32.465 57.3086 32.6492Z" fill="white"/>
<path d="M54.8918 33.1101C54.8688 34.4916 54.8458 35.9882 54.8918 37.3237C56.3194 37.3237 57.7469 37.1395 59.1284 36.8171C58.4607 35.4356 57.4936 34.1463 56.4805 32.8799C55.974 32.949 55.3984 33.0411 54.8918 33.1101Z" fill="white"/>
<path d="M44.1845 74.4399C43.747 74.4399 43.4707 74.6472 43.4707 75.1537V79.0449C43.4707 79.5515 43.747 79.7587 44.1845 79.7587C44.6219 79.7587 44.8982 79.5515 44.8982 79.0449V75.1537C44.8982 74.6472 44.6219 74.4399 44.1845 74.4399Z" fill="white"/>
<path d="M39.2567 74.4399C38.8193 74.4399 38.543 74.6472 38.543 75.1537V79.0449C38.543 79.5515 38.8193 79.7587 39.2567 79.7587C39.6942 79.7587 39.9705 79.5515 39.9705 79.0449V75.1537C39.9705 74.6472 39.6942 74.4399 39.2567 74.4399Z" fill="white"/>
<path d="M49.6641 31.6823C49.5259 31.5672 49.3648 31.452 49.2036 31.3369C49.0194 31.1757 48.8812 31.406 48.674 31.3599V31.3139C48.5819 31.3139 48.5128 31.383 48.4438 31.4751C46.5557 32.0737 44.7598 32.9717 43.125 34.146V34.192C43.7467 34.6295 44.3914 34.9979 45.0821 35.2512C46.5097 33.8236 48.0754 32.6493 49.6641 31.6823Z" fill="white"/>
<path d="M50.5633 31.3138C52.9118 32.8105 56.5498 32.6493 58.7832 31.0375V30.9915C56.0893 30.3238 52.8888 30.3698 50.1719 30.9915C50.1719 31.1757 50.4252 31.2217 50.5633 31.3138Z" fill="white"/>
<path d="M64.0096 35.1589L65.7825 34.1688L65.8285 34.0767C63.9866 32.7643 61.9604 31.8203 59.796 31.2446C59.6118 31.3598 59.3585 31.4979 59.3125 31.6821C60.9242 32.6261 62.513 33.8004 63.8714 35.1589H64.0096Z" fill="white"/>
<path d="M52.4287 32.8564C51.3696 34.0998 50.4946 35.4352 49.7578 36.8167C50.4486 37.047 51.3235 37.1161 52.0142 37.2312C52.728 37.2772 53.3727 37.4154 54.0865 37.3003C54.0865 35.9188 54.1325 34.3991 54.0635 33.0867L52.4287 32.8564Z" fill="white"/>
<path d="M67.4171 46.2568C66.9335 47.8456 67.0487 49.6875 67.1408 51.4144C67.2329 52.2894 67.348 53.2334 68.1308 53.786C69.0749 54.3156 70.4564 54.4307 71.4925 53.9932C72.1372 53.763 72.5516 53.1413 72.6668 52.5196C72.92 51.046 72.8049 49.3422 72.8279 47.9146C72.7589 47.2239 72.7819 46.4871 72.3905 45.8884C71.7688 45.0826 70.8017 44.9214 69.7886 44.9214C68.8446 45.0135 67.7855 45.2668 67.4171 46.2568Z" fill="white"/>
<path d="M51.577 32.6031C51.1855 32.4189 50.8171 32.3038 50.4257 32.1426C48.7909 32.9945 47.2943 34.0997 45.8898 35.4351L45.8438 35.5963C46.8108 36.0338 47.8469 36.3561 48.9061 36.6324L48.9982 36.6094C49.758 35.32 50.5408 34.0076 51.5079 32.8103L51.577 32.6031Z" fill="white"/>
<path d="M54.5011 91.5011C74.9242 91.5011 91.5021 74.9462 91.5021 54.5001C91.5021 34.0539 74.9242 17.499 54.5011 17.499C34.0779 17.499 17.5 34.077 17.5 54.5001C17.5 74.9232 34.0779 91.5011 54.5011 91.5011ZM36.3804 78.9295C36.3804 80.1499 35.7127 80.8176 34.2852 80.8176C32.9497 80.8176 32.236 80.1499 32.236 78.9986V78.8144H33.5254V79.0677C33.5254 79.5742 33.8016 79.7815 34.2391 79.7815C34.7226 79.7815 34.9989 79.5742 34.9989 78.8835V77.5711C34.7687 77.9855 34.3542 78.1927 33.7556 78.1927C32.7425 78.1927 32.236 77.5941 32.236 76.5349V75.2225C32.236 74.0713 32.9728 73.4035 34.3082 73.4035C35.6436 73.4035 36.3804 74.0713 36.3804 75.2225V78.9295ZM41.3308 78.9986C41.3308 80.1499 40.594 80.8176 39.2586 80.8176C37.9231 80.8176 37.1863 80.1499 37.1863 78.9986V75.2455C37.1863 74.0943 37.9231 73.4266 39.2586 73.4266C40.594 73.4266 41.3308 74.0943 41.3308 75.2455V78.9986ZM46.2581 78.9986C46.2581 80.1499 45.5213 80.8176 44.1859 80.8176C42.8504 80.8176 42.1136 80.1499 42.1136 78.9986V75.2455C42.1136 74.0943 42.8504 73.4266 44.1859 73.4266C45.5213 73.4266 46.2581 74.0943 46.2581 75.2455V78.9986ZM50.4256 80.7255H49.0442V75.2225H47.985V74.4166C49.0442 74.4166 49.2744 74.0022 49.4816 73.5187H50.4026V80.7255H50.4256ZM53.3959 80.7255H52.0834V79.6203H53.3959V80.7255ZM53.3959 76.7882H52.0834V75.683H53.3959V76.7882ZM55.7444 79.6894H58.3232V80.7255H54.3629V79.8275C54.3629 79.0216 54.7083 78.423 55.7214 77.525C56.7575 76.604 57.0568 76.0284 57.0568 75.2686C57.0568 74.6239 56.7805 74.4397 56.3431 74.4397C55.9056 74.4397 55.6293 74.6469 55.6293 75.1534V75.9363H54.3399V75.2455C54.3399 74.0943 55.0306 73.4266 56.3891 73.4266C57.7245 73.4266 58.4383 74.0943 58.4383 75.2455C58.4383 76.2126 58.0239 76.9724 56.7575 78.1006C55.9516 78.8144 55.7214 79.1598 55.7214 79.5512C55.7444 79.5973 55.7444 79.6433 55.7444 79.6894ZM63.3426 78.9986C63.3426 80.1499 62.6058 80.8176 61.2704 80.8176C59.9349 80.8176 59.1981 80.1499 59.1981 78.9986V75.2455C59.1981 74.0943 59.9349 73.4266 61.2704 73.4266C62.6058 73.4266 63.3426 74.0943 63.3426 75.2455V78.9986ZM67.5101 80.7255H66.1517V75.2225H65.0925V74.4166C66.1517 74.4166 66.3819 74.0022 66.5891 73.5187H67.5101V80.7255ZM51.8071 69.0518C49.5277 68.7525 47.3633 68.0387 45.3371 67.0487C45.3832 67.0256 45.3371 66.9796 45.3141 66.9796C45.2911 66.9796 45.2911 67.0026 45.2911 67.0026C42.2978 65.506 39.4197 62.9963 37.5777 60.1182C37.8771 60.0951 38.0843 60.0721 38.4066 60.1182C39.4888 61.7069 40.9164 63.2265 42.459 64.3778C43.1728 64.0554 43.8635 63.5949 44.5543 63.2035C43.7254 62.1904 42.9195 61.2003 42.2978 60.0951C42.5741 60.1412 43.1037 59.8879 43.2188 60.3254C43.7945 61.1773 44.4852 62.0292 45.199 62.8121L45.2911 62.8581C46.3963 62.3976 47.5245 62.0062 48.6758 61.6608L48.7448 61.5918L48.1001 60.0951C48.2843 60.0261 48.5606 60.0721 48.8139 60.0721L49.5047 61.4076C51.0013 61.1082 52.5209 60.924 54.1327 60.855C54.2938 60.6017 54.1557 60.3714 54.2017 60.0721H54.8695C54.9616 60.2793 54.8695 60.6017 54.9385 60.8319C56.4812 60.924 58.139 61.1082 59.6586 61.4306L60.3494 60.0721H61.0401C60.948 60.5787 60.6027 61.0622 60.4185 61.5687L60.5566 61.6608C61.7079 61.9602 62.744 62.3746 63.8722 62.8121C64.7241 61.9832 65.3918 60.9931 66.0365 60.0721H66.8424C66.2207 61.1543 65.4379 62.1444 64.609 63.1344C65.2307 63.5259 65.9214 63.8712 66.5661 64.2627C66.6122 64.3317 66.7733 64.3548 66.8194 64.2857C68.316 63.1344 69.6745 61.6378 70.7336 60.0951C70.9869 60.0721 71.3323 60.0721 71.5625 60.0951C67.2108 66.7493 59.6817 70.088 51.8071 69.0518ZM55.6753 41.0535C56.8266 41.0075 58.2311 41.0075 59.4054 41.0305C59.4284 43.1258 59.4975 44.9447 59.4514 46.994C58.2311 47.04 56.9187 47.017 55.7905 47.017C54.7313 45.3822 52.8893 44.7836 51.0934 44.5303C50.2414 44.5073 49.1132 44.254 48.6297 45.0829C48.5837 45.3592 48.6988 45.5894 48.906 45.7506L49.3665 45.9809L55.5832 47.7768C57.6555 48.3064 59.7047 50.2405 60.004 52.3818C60.2803 54.5692 59.2672 56.6184 57.3331 57.6775C54.6853 59.036 51.2545 58.7827 48.5837 57.6775C48.1462 57.4473 47.7087 57.194 47.2712 57.0098L47.2252 58.2301L43.38 58.2531C43.3109 56.227 43.334 53.9014 43.38 51.8522L46.8338 51.8292C47.041 52.0825 47.1791 52.3818 47.3633 52.6351C49.1132 54.454 51.715 54.9606 54.1327 54.2929C54.3169 54.2008 54.5471 54.0626 54.5471 53.8554C54.5932 53.5791 54.2938 53.3488 54.0636 53.2567C51.7611 52.4739 49.3665 51.8983 47.087 51.0924C45.4292 50.4707 43.6793 49.1353 43.334 47.3163C42.8965 45.4052 43.403 43.2409 45.0839 42.0206C47.6396 40.1786 51.5999 40.2937 54.432 41.491L55.6063 42.1127C55.7214 41.7903 55.6063 41.3528 55.6753 41.0535ZM73.1743 78.9986C73.1743 80.1499 72.4835 80.8176 71.1251 80.8176C69.7896 80.8176 69.0758 80.1499 69.0758 78.9986V78.4H70.3652V79.0677C70.3652 79.5742 70.6415 79.7584 71.079 79.7584C71.5165 79.7584 71.7928 79.5742 71.7928 79.0677V77.479C71.7928 76.9724 71.5165 76.7652 71.079 76.7652C70.6415 76.7652 70.3652 76.9724 70.3652 77.479V77.6862H69.0758L69.3291 73.4957H72.944V74.5318H70.5494L70.4343 76.2586H70.4573C70.7106 75.9133 71.102 75.7291 71.6316 75.7291C72.6447 75.7291 73.1513 76.3277 73.1513 77.3869V78.9986H73.1743ZM78.7233 45.3362C79.8745 48.4676 79.7594 52.612 77.8483 55.3981C77.0194 56.4572 75.9142 57.2401 74.763 57.7236L74.6479 57.7696C74.2565 57.9768 73.7038 58.115 73.5196 58.138C69.7896 59.1741 65.6221 58.6215 62.744 56.0888C60.2803 53.6942 60.0961 49.8951 60.7869 46.6946C61.1783 44.7605 62.3986 42.8495 64.2867 41.9054C67.7174 39.9944 72.8059 40.1325 76.1445 42.2508C77.3188 43.0337 78.2628 44.1158 78.7233 45.3362ZM52.8893 29.8634C53.2347 29.8404 53.557 29.8174 53.8333 29.8404C54.5701 29.7713 55.4221 29.7943 56.1128 29.8634L56.1589 29.9095L56.1819 29.8634C62.3065 30.3469 67.9706 33.6395 71.4244 38.7971C71.1711 38.9352 70.9178 38.8201 70.5955 38.8201C69.4903 37.2314 68.1088 35.8038 66.5431 34.6065L66.2898 34.6986L64.4939 35.7348V35.8729C64.9314 36.3334 65.2998 36.7479 65.6221 37.2314C66.0365 37.7149 66.428 38.2675 66.7273 38.8201C66.5201 38.8892 66.2438 38.8662 65.9675 38.8662C65.2998 37.8991 64.563 36.9321 63.7571 36.1032C62.6289 36.5637 61.5237 37.0011 60.3494 37.3005L60.3033 37.3465L60.948 38.7971C60.7638 38.9122 60.4645 38.8431 60.2343 38.8431L59.5435 37.5307H59.4054C57.9548 37.8761 56.4121 38.0373 54.9155 38.1063C54.8234 38.3366 54.9155 38.6129 54.8464 38.8662H54.1557C54.0866 38.6359 54.2248 38.2675 54.0175 38.0833C52.4288 38.0373 50.8631 37.8531 49.3665 37.5307C49.1132 37.9682 48.929 38.4287 48.6988 38.8662C48.4225 38.8892 48.2383 38.9122 47.962 38.8662L48.6067 37.4156L48.5146 37.3235C47.3864 37.0242 46.3042 36.5867 45.199 36.1953C44.3701 37.0242 43.6793 37.9682 43.0346 38.8892C42.7814 38.9352 42.436 38.9583 42.2748 38.8892C42.8735 37.83 43.6793 36.84 44.4852 35.8729C43.8405 35.4815 43.1037 35.1131 42.436 34.6756C41.7222 35.1361 41.1006 35.7348 40.4328 36.3564C39.673 37.1623 38.9823 37.9912 38.3606 38.8431C38.1073 38.9352 37.785 38.8431 37.5317 38.8662C41.0775 33.5014 46.7417 30.3469 52.8893 29.8634ZM30.9696 54.0856L33.5023 54.0396L33.5254 53.6942V45.1289C32.6734 45.0599 31.8676 45.0829 30.9926 45.0599C30.9696 43.7014 30.9696 42.1357 30.9926 40.8003L32.5813 40.7772L42.2518 40.8003C42.3209 42.1127 42.2978 43.6553 42.2748 45.0829L39.7421 45.1059L39.696 45.175L39.673 54.0166C40.5019 54.1087 41.4459 54.0396 42.2978 54.0856V58.2531H30.9926C30.9005 56.8717 30.9005 55.4902 30.9696 54.0856Z" fill="white"/>
<path d="M50.4704 67.8315C50.4013 67.9005 50.2171 67.9236 50.2632 68.0617C52.9801 68.7064 56.0194 68.6834 58.7363 68.1078C58.7824 68.0617 58.9896 68.1078 58.9205 67.9466C56.595 66.2888 52.865 66.2888 50.4704 67.8315Z" fill="white"/>
<path d="M51.7374 66.3809C50.8164 65.0685 49.8954 63.7561 49.1586 62.3746L49.0435 62.3516C47.9613 62.6279 46.9252 62.9732 45.9121 63.4568V63.5258C47.2706 64.9073 48.8823 66.0816 50.5862 66.9105C50.9315 66.7033 51.369 66.5882 51.7374 66.3809Z" fill="white"/>
<path d="M43.2188 64.8843V64.9534C45.0607 66.2658 47.0639 67.2099 49.2283 67.7855C49.4125 67.6934 49.6197 67.5322 49.7348 67.371C48.1 66.3349 46.5804 65.2527 45.1068 63.8252C44.4621 64.1015 43.8404 64.4929 43.2188 64.8843Z" fill="white"/>
<path d="M59.4972 67.302L59.4512 67.3711C59.6354 67.5323 59.8196 67.6704 60.0268 67.7856L61.2241 67.4172C62.9279 66.7955 64.5857 66.0357 66.0133 64.8844C65.3916 64.4469 64.7239 64.0785 64.0331 63.8022C62.6056 65.1837 61.132 66.335 59.4972 67.302Z" fill="white"/>
<path d="M54.2236 65.9203L54.2006 61.6606C52.7731 61.6606 51.3685 61.8679 50.0561 62.1211L49.918 62.2132C50.6548 63.5947 51.5297 64.9302 52.5889 66.1735C53.0954 66.0354 53.6941 66.0354 54.2236 65.9203Z" fill="white"/>
<path d="M23.6931 27.5381C24.8904 28.7354 26.2949 28.7124 27.6764 27.3309C29.0579 25.9494 29.127 24.5448 27.9297 23.3475L26.9396 22.3345L25.6042 23.6699L26.6633 24.7521C27.1929 25.2816 27.1008 25.7652 26.6403 26.2026C26.1798 26.6401 25.7193 26.7322 25.1897 26.2026L21.1604 22.1502C20.6308 21.6207 20.7229 21.1372 21.1604 20.6767C21.6209 20.2392 22.1044 20.1471 22.634 20.6767L23.4398 21.4825L24.7753 20.1471L24.0615 19.4103C22.8642 18.213 21.4597 18.236 20.0782 19.6175C18.6737 20.999 18.6276 22.4035 19.8249 23.6008L23.6931 27.5381Z" fill="white"/>
<path d="M36.7469 20.4231L35.941 19.1567L33.0169 20.9757L31.3821 18.3508L33.7076 16.9003L32.9248 15.6109L30.5762 17.0614L29.0336 14.5517L31.9808 12.7328L31.1749 11.4434L26.5469 14.3215L32.1189 23.3012L36.7469 20.4231Z" fill="white"/>
<path d="M41.3524 18.4893L39.9709 14.4139L40.6156 14.1837C41.4675 13.8843 41.974 14.1146 42.2964 15.0356L42.826 16.6013C43.1023 17.4072 43.2174 17.5453 43.4246 17.7756L45.3587 17.1309C45.0364 16.8315 44.8982 16.4631 44.737 15.9796L44.2075 14.4369C43.8621 13.4008 43.2865 12.7561 42.2273 12.7561V12.7331C42.9641 12.1114 43.1253 11.3286 42.7799 10.2925L42.5036 9.50961C41.974 7.96694 40.8919 7.48342 38.9117 8.15114L36.0566 9.11819L39.4413 19.134L41.3524 18.4893ZM39.3722 9.60171C40.04 9.37147 40.4544 9.60171 40.6846 10.3155L41.007 11.3056C41.2833 12.1114 40.9379 12.5029 40.2241 12.7561L39.4874 13.0094L38.4512 9.92406L39.3722 9.60171Z" fill="white"/>
<path d="M48.8115 7.45982L49.6865 16.4856L51.6897 16.2784L50.7917 7.27562L52.887 7.0684L52.7258 5.57178L46.5781 6.17043L46.7163 7.66705L48.8115 7.45982Z" fill="white"/>
<path d="M57.6686 5.73035L56.7773 16.2607L58.7733 16.4297L59.6646 5.89928L57.6686 5.73035Z" fill="white"/>
<path d="M65.4135 13.2392L67.9232 13.9299L68.3146 12.4794L65.8279 11.7886L66.6568 8.70329L69.8342 9.57823L70.2487 8.12766L65.1372 6.72314L62.3281 16.9232L64.2622 17.4528L65.4135 13.2392Z" fill="white"/>
<path d="M74.8953 10.073L70.2832 19.5825L72.0857 20.4567L76.6977 10.9472L74.8953 10.073Z" fill="white"/>
<path d="M79.597 25.4195L80.495 24.1991L77.7089 22.1499L79.574 19.6632L81.7613 21.298L82.6823 20.0777L80.4719 18.4429L82.2218 16.0944L85.0078 18.1436L85.9058 16.9463L81.5081 13.6768L75.1992 22.173L79.597 25.4195Z" fill="white"/>
<path d="M91.9146 23.048L89.8654 20.6304L81.8066 27.4688L83.8559 29.8864C85.1453 31.406 86.4807 31.5672 87.7701 30.485L91.8455 27.0313C93.1349 25.9261 93.204 24.5676 91.9146 23.048ZM90.6252 25.4426L86.4346 28.9884C85.859 29.4719 85.3985 29.3568 84.9841 28.8733L84.2473 28.0214L90.0035 23.1401L90.7403 23.992C91.1548 24.4755 91.2008 24.9591 90.6252 25.4426Z" fill="white"/>
<path d="M26.8697 82.4752C25.5113 80.9095 24.0377 80.7714 22.7022 81.9226L18.3275 85.6987C16.969 86.85 16.8999 88.3466 18.2584 89.9123C19.6169 91.478 21.0905 91.6161 22.4259 90.4649L23.5541 89.4978L22.2647 87.9782L21.0675 89.0143C20.4688 89.5439 19.9853 89.4057 19.5248 88.8992C19.0873 88.3926 19.0182 87.8861 19.6399 87.3565L24.1988 83.4423C24.7975 82.9127 25.304 83.0508 25.7415 83.5574C26.179 84.0639 26.225 84.5705 25.6264 85.1001L24.7284 85.8829L26.0178 87.4026L26.8467 86.6888C28.1591 85.5375 28.2282 84.0409 26.8697 82.4752Z" fill="white"/>
<path d="M34.3303 89.0604C32.6034 87.9092 31.1068 88.1394 30.1167 89.613L26.9162 94.4252C25.9262 95.8988 26.3176 97.3724 28.0214 98.5236C29.7483 99.6749 31.2449 99.4446 32.235 97.971L35.4355 93.1588C36.4255 91.6622 36.0571 90.2117 34.3303 89.0604ZM33.7546 91.8925L30.4391 96.8889C30.0016 97.5566 29.472 97.5796 28.9194 97.1882C28.3668 96.8198 28.1826 96.3363 28.6201 95.6686L31.9357 90.6722C32.3732 90.0044 32.9027 89.9814 33.4553 90.3728C34.0079 90.7412 34.1921 91.2248 33.7546 91.8925Z" fill="white"/>
<path d="M42.6431 101.563L42.597 101.54L43.2417 93.5275L40.4097 92.7446L37.4395 103.451L39.2124 103.958L41.3076 96.3826H41.3537L40.732 104.372L42.6431 104.902L46.1429 97.6029H46.1659L44.0476 105.293L45.9587 105.823L48.9289 95.1162L46.1198 94.3334L42.6431 101.563Z" fill="white"/>
<path d="M56.1572 95.2313L53.0488 95.3464L53.4633 106.467L55.5585 106.398L55.3974 102.231L56.3874 102.185C58.4827 102.116 59.4958 101.103 59.4267 99.3297L59.3807 97.8791C59.3346 96.0832 58.2525 95.1392 56.1572 95.2313ZM56.3414 100.573L55.3513 100.619L55.2132 96.866L56.2032 96.82C56.871 96.7969 57.2394 97.0272 57.2854 97.8331L57.3545 99.4909C57.3775 100.274 57.0091 100.55 56.3414 100.573Z" fill="white"/>
<path d="M64.0566 94.0338L65.346 105.293L67.188 104.717L66.9348 102.691L69.3984 101.908L70.3424 103.727L72.3686 103.083L67.0038 93.1128L64.0566 94.0338ZM66.7505 101.148L66.0138 95.4844H66.0598L68.7077 100.55L66.7505 101.148Z" fill="white"/>
<path d="M76.1903 88.1856L79.9204 93.6886L79.8973 93.7116L74.3944 89.3829L72.207 90.8795L78.4468 100.09L80.0125 99.0304L75.4996 92.3531L75.5456 92.3301L82.1998 97.5568L83.9728 96.3364L77.756 87.1265L76.1903 88.1856Z" fill="white"/>
<path d="M85.0537 79.1597L83.7643 80.7023L86.6654 85.1692L86.6424 85.2152L81.7151 83.189L80.3105 84.8929L87.7246 87.5868L90.5566 89.9353L91.9151 88.3236L89.083 85.9751L85.0537 79.1597Z" fill="white"/>
</svg>
